<?xml version="1.0" standalone="no"?>
<!DOCTYPE svg PUBLIC "-//W3C//DTD SVG 20010904//EN"
 "http://www.w3.org/TR/2001/REC-SVG-20010904/DTD/svg10.dtd">
<svg version="1.0" xmlns="http://www.w3.org/2000/svg"
 width="16.000000pt" height="16.000000pt" viewBox="0 0 16.000000 16.000000"
 preserveAspectRatio="xMidYMid meet">
<metadata>
Created by potrace 1.11, written by Peter Selinger 2001-2013
</metadata>
<g transform="translate(0.000000,16.000000) scale(0.001600,-0.001600)"
fill="#000000" stroke="none">
<path d="M500 9501 c0 -9 48 -123 88 -211 18 -38 142 -319 480 -1080 33 -74
80 -178 104 -230 25 -52 84 -183 132 -290 l86 -195 291 0 c338 0 293 18 359
-140 23 -55 50 -118 60 -140 30 -67 180 -414 225 -520 48 -114 228 -530 255
-590 10 -22 29 -67 43 -100 25 -61 148 -345 172 -400 8 -16 50 -115 95 -220
44 -104 87 -203 95 -220 7 -16 77 -178 155 -360 78 -181 150 -348 160 -370 10
-22 52 -119 93 -215 41 -96 82 -191 90 -210 28 -65 47 -107 238 -551 105 -244
205 -475 221 -514 16 -38 35 -83 43 -100 7 -16 30 -68 50 -115 20 -47 43 -98
50 -115 7 -16 146 -340 310 -720 163 -379 306 -712 319 -740 12 -27 81 -186
152 -352 71 -167 131 -303 134 -303 3 0 17 28 31 63 15 34 432 1016 927 2182
495 1166 950 2239 1012 2385 62 146 118 279 126 295 8 17 55 127 105 245 49
118 96 229 104 245 7 17 30 71 50 120 21 50 46 108 56 130 9 22 74 175 144
340 69 165 132 314 140 330 7 17 48 111 90 210 91 217 86 204 144 340 l47 110
313 0 312 0 13 25 c14 25 34 68 79 170 13 30 44 98 67 150 23 52 59 131 80
175 21 44 84 184 140 310 56 127 113 255 127 285 14 30 60 134 103 230 43 96
89 200 103 230 90 198 187 420 187 429 0 8 -390 10 -1362 9 l-1363 -3 -277
-775 c-153 -426 -293 -820 -312 -875 -63 -179 -128 -360 -136 -380 -5 -11
-117 -326 -250 -700 -133 -374 -251 -705 -262 -735 -44 -123 -371 -1037 -378
-1060 -5 -14 -27 -77 -50 -140 -23 -63 -52 -144 -65 -180 -50 -142 -35 -154
-139 105 -51 127 -136 336 -188 465 -53 129 -148 363 -211 520 -178 440 -363
897 -751 1855 -197 484 -427 1053 -513 1265 -86 212 -179 441 -207 510 l-51
125 -1243 3 c-746 1 -1242 -2 -1242 -7z"/>
</g>
</svg>
