<?xml version="1.0" encoding="utf-8"?>
<svg version="1.1" id="Layer_1" xmlns="http://www.w3.org/2000/svg" xmlns:xlink="http://www.w3.org/1999/xlink" x="0px" y="0px" viewBox="0 0 1101.5 333.3" style="enable-background:new 0 0 1101.5 333.3;" xml:space="preserve" class="">
<style type="text/css">
	.st0{fill:#FFCB29;}
	.st1{fill:#53405B;}
	.st2{opacity:0.32;fill:#EE3145;}
	.st3{fill:#EE3145;}
	.st4{opacity:0.32;fill:#78C798;}
	.st5{fill:#79C798;}
	.st6{opacity:0.32;fill:#3BBEE9;}
	.st7{fill:#3BBEE9;}
	.st8{fill:none;stroke:#3BBEE9;stroke-width:2;stroke-miterlimit:10;}
	.st9{fill:none;stroke:#EE3145;stroke-width:2;stroke-miterlimit:10;}
	.st10{fill:#FFFFFF;stroke:#000;filter: drop-shadow(0px 0px 1px #000);}
	.st11{fill:none;stroke:#79C798;stroke-width:2;stroke-miterlimit:10;}
</style>
<g>
	<g>
		<path class="st0" d="M85.9,19.7h2V1.8h-2.8v-2h2.5c1,0,1.7,0.2,2.1,0.6c0.4,0.4,0.6,1,0.6,1.9v17.3h1.8v2h-6.2V19.7z"/>
		<path class="st0" d="M97.7,18.8c0.4,0,0.7,0.2,1,0.5c0.3,0.3,0.4,0.7,0.4,1.1s-0.1,0.8-0.4,1c-0.3,0.3-0.6,0.4-1,0.4    s-0.8-0.1-1-0.4s-0.4-0.6-0.4-1s0.2-0.8,0.5-1.1C96.9,18.9,97.3,18.8,97.7,18.8z"/>
		<path class="st0" d="M112.8,3.2c0-2.2,1-3.3,3.1-3.3h9.2v5.4h-2.3V1.8h-7.6v17.9h7.6v-6.8l-4,2.5v-2.1l6.4-4v12.4h-8.6    c-1.4,0-2.3-0.3-2.8-0.8c-0.5-0.5-0.8-1.5-0.8-2.9V3.2z"/>
		<path class="st0" d="M145.2,19.7v2h-5.8v-2h1.6l-5-8l-3.1,1.9v6.1h1.9v2h-6.1v-2h1.8V1.8h-1.8v-2h10.4c1.3,0,2.1,0.2,2.6,0.7    c0.4,0.5,0.7,1.5,0.7,2.9v1.8c0,0.7-0.1,1.3-0.2,1.7c-0.1,0.4-0.4,0.8-0.7,1.2c-0.3,0.3-0.8,0.7-1.4,1c-0.6,0.3-1.3,0.8-2.2,1.3    l5.7,9.1H145.2z M132.9,11.2l7.3-4.5V1.8h-7.3V11.2z"/>
		<path class="st0" d="M156.3-0.2c1.2,0,2,0.3,2.6,1c0.5,0.7,0.8,1.6,0.8,2.9v14c0,1.4-0.2,2.4-0.7,3c-0.5,0.6-1.3,0.9-2.5,0.9h-5.6    c-1.9,0-3-0.7-3.3-2.1c-0.1-0.4-0.2-0.9-0.2-1.4V3.7c0-1.3,0.2-2.2,0.6-2.8c0.5-0.7,1.3-1,2.6-1H156.3z M149.7,19.7h7.6V1.8h-7.6    V19.7z"/>
		<path class="st0" d="M167.6,21.7c-1.7,0-2.6-1-2.6-2.9v-17h-1.8v-2h6.1v2h-1.9v17.9h7.9V1.8h-1.9v-2h6.1v2h-1.8v16.8    c0,2-0.9,3-2.6,3H167.6z"/>
		<path class="st0" d="M193.5-0.2c1.3,0,2.1,0.2,2.6,0.7c0.4,0.5,0.7,1.4,0.7,2.9v2.1c0,1.1-0.2,1.9-0.7,2.4    c-0.2,0.3-0.5,0.5-0.9,0.7s-0.8,0.5-1.4,0.8l-6.4,4v6.1h1.9v2h-6.1v-2h1.8V1.8h-1.8v-2H193.5z M194.7,1.8h-7.3v9.4l7.3-4.5V1.8z"/>
		<path class="st0" d="M220,11c0.4,0.3,0.8,0.5,1.1,0.7c0.3,0.2,0.6,0.4,0.9,0.7c0.5,0.5,0.8,1,0.8,1.7V19c0,0.9-0.3,1.5-0.9,2    c-0.5,0.4-1.2,0.6-2.1,0.6h-9.3v-5.4h2.1v3.4h7.9V14l-7.6-4.7c-0.7-0.4-1.2-0.8-1.7-1.2s-0.7-1-0.7-1.7V2.8c0-1.1,0.3-1.9,0.8-2.4    c0.5-0.4,1.3-0.6,2.4-0.6h8.8v5.4h-2.1V1.8h-7.6v4.7L220,11z"/>
		<path class="st0" d="M228.3,19.7h1.8V1.8h-3.7v3.4h-2.1v-5.4h13.9v5.4h-2.1V1.8h-3.7v17.9h1.9v2h-6.1V19.7z"/>
		<path class="st0" d="M254.1,19.7v2h-5.7v-2h1.6l-1.5-5.8h-6.1l-1.5,5.8h1.6v2h-5.7v-2h1.8l5.1-19.8h3.4l5,19.8H254.1z M248.1,12.1    l-2.6-10.2l-2.6,10.2H248.1z"/>
		<path class="st0" d="M256.6,3.2c0-2.2,1-3.3,3.1-3.3h9.2v5.4h-2.3V1.8H259v17.9h7.6v-6.8l-4,2.5v-2.1l6.4-4v12.4h-8.6    c-1.4,0-2.3-0.3-2.8-0.8c-0.5-0.5-0.8-1.5-0.8-2.9V3.2z"/>
		<path class="st0" d="M282.8,7.3v6.1h-2v-2.1h-4.1v8.3h7.5v-3.4h2v5.4h-13.6v-2h1.8V1.8h-1.8v-2h13.6v5.4h-2V1.8h-7.5v7.6h4.1V7.3    H282.8z"/>
	</g>
</g>
<g>
	<g>
		<path class="st1" d="M62.3,94.9v203.7H8.8V94.9H62.3 M64.3,92.9H6.8v207.7h57.5V92.9L64.3,92.9z"/>
	</g>
	<g>
		<path class="st1" d="M137.3,94.9v203.7H83.8V94.9H137.3 M139.3,92.9H81.8v207.7h57.5V92.9L139.3,92.9z"/>
	</g>
	<g>
		<path class="st1" d="M212.3,94.9v203.7h-53.5V94.9H212.3 M214.3,92.9h-57.5v207.7h57.5V92.9L214.3,92.9z"/>
	</g>
	<g>
		<path class="st1" d="M287.3,94.9v203.7h-53.5V94.9H287.3 M289.3,92.9h-57.5v207.7h57.5V92.9L289.3,92.9z"/>
	</g>
	<g>
		<path class="st1" d="M362.3,94.9v203.7h-53.5V94.9H362.3 M364.3,92.9h-57.5v207.7h57.5V92.9L364.3,92.9z"/>
	</g>
</g>
<polygon class="st1" points="35.5,59.8 6.8,59.8 6.8,111.5 35.5,117.3 64.3,111.5 64.3,59.8 "/>
<g>
	<rect y="122.3" class="st2" width="371.5" height="35.7"/>
	<g>
		<path class="st3" d="M369.5,124.3V156H2v-31.7H369.5 M371.5,122.3H0V158h371.5V122.3L371.5,122.3z"/>
	</g>
</g>
<g>
	<rect y="168" class="st4" width="371.5" height="35.7"/>
	<g>
		<path class="st5" d="M369.5,170v31.7H2V170H369.5 M371.5,168H0v35.7h371.5V168L371.5,168z"/>
	</g>
</g>
<g>
	<rect x="551" y="60.1" class="st4" width="57.5" height="240.5"/>
	<g>
		<path class="st5" d="M606.5,62.1v236.5H553V62.1H606.5 M608.5,60.1H551v240.5h57.5V60.1L608.5,60.1z"/>
	</g>
</g>
<g>
	<rect x="557.7" y="72.4" class="st6" width="59.3" height="132.9"/>
	<g>
		<path class="st7" d="M615,74.4v128.9h-55.3V74.4H615 M617,72.4h-59.3v132.9H617V72.4L617,72.4z"/>
	</g>
</g>
<g>
	<circle class="st6" cx="957.5" cy="172.3" r="71.8"/>
	<circle class="st8" cx="957.5" cy="172.3" r="71.8"/>
</g>
<g>
	<circle class="st2" cx="986.9" cy="201.3" r="71.8"/>
	<circle class="st9" cx="986.9" cy="201.3" r="71.8"/>
</g>
<g>
	<path class="st10" d="M32.9,76.9h2.8c0.3,0,0.6,0.1,0.7,0.4L45.2,95c0,0.1,0.1,0.2,0.1,0.3c0,0.4-0.2,0.6-0.5,0.7   c-0.1,0-0.2,0.1-0.3,0.1c-0.4,0-0.6-0.1-0.7-0.4l-2.9-5.8H30.4l-2.9,5.8c-0.2,0.4-0.5,0.5-1.1,0.3c-0.3-0.1-0.5-0.4-0.5-0.7   c0-0.1,0-0.2,0.1-0.3l8.3-16.7h-1.3c-0.2,0-0.4-0.1-0.5-0.2c-0.1-0.1-0.2-0.3-0.2-0.5s0.1-0.4,0.2-0.5C32.5,77,32.7,76.9,32.9,76.9   z M35.6,79.1l-4.5,9.3h9L35.6,79.1z"/>
</g>
<g>
	<g>
		<path class="st10" d="M34.7,138.4l-0.7,2.5h5l-0.4,1.8h-5l-1.6,6.1h-2l1.6-6.1h-3.2l-1.6,6.1h-1.9l1.7-6.1h-4.2l0.5-1.8h4.2    l0.6-2.5h-4.1l0.5-1.9H28l1.6-6.2h1.9l-1.6,6.2h3.2l1.6-6.2h2l-1.6,6.2h5l-0.5,1.9H34.7z M29.5,138.4l-0.7,2.5H32l0.7-2.5H29.5z"/>
		<path class="st10" d="M42.1,147.2h1.7v-15.1h-2.4v-1.7h2.1c0.8,0,1.4,0.2,1.8,0.5s0.5,0.9,0.5,1.6v14.7h1.5v1.7h-5.2V147.2z"/>
	</g>
</g>
<g>
	<g>
		<path class="st10" d="M32.5,184.7l-0.7,2.5h5l-0.4,1.8h-5l-1.6,6.1h-2l1.6-6.1h-3.2l-1.6,6.1h-1.9l1.7-6.1h-4.2l0.5-1.8h4.2    l0.6-2.5h-4.1l0.5-1.9h4.1l1.6-6.2h1.9l-1.6,6.2H31l1.6-6.2h2l-1.6,6.2h5l-0.5,1.9H32.5z M27.3,184.7l-0.7,2.5h3.2l0.7-2.5H27.3z"/>
		<path class="st10" d="M39.7,190.7c0-1.3,0.4-2.3,1.3-2.9l7.1-4.4v-5.1h-6.5v3h-1.9v-4.7h7.2c1.2,0,2.1,0.2,2.6,0.6    c0.5,0.4,0.7,1.1,0.7,2.2v2.9c0,1.1-0.4,1.9-1.2,2.4l-7.3,4.6v4h6.5v-2.3h2.1v3.9H39.7V190.7z"/>
	</g>
</g>
<g>
	<g>
		<path class="st10" d="M32.7,230.9l-0.7,2.5h5l-0.4,1.8h-5l-1.6,6.1h-2l1.6-6.1h-3.2l-1.6,6.1h-1.9l1.7-6.1h-4.2l0.5-1.8h4.2    l0.6-2.5h-4.1l0.5-1.9H26l1.6-6.2h1.9l-1.6,6.2h3.2l1.6-6.2h2l-1.6,6.2h5l-0.5,1.9H32.7z M27.5,230.9l-0.7,2.5H30l0.7-2.5H27.5z"/>
		<path class="st10" d="M50.1,224.5l-6,6h3.2c1.1,0,1.8,0.2,2.2,0.7c0.4,0.4,0.6,1.2,0.6,2.2v4.6c0,0.5,0,1-0.1,1.4    c-0.1,0.4-0.2,0.8-0.5,1c-0.5,0.6-1.4,0.8-2.8,0.8h-3.7c-1.8,0-2.8-0.7-3-2.1c0-0.4-0.1-0.8-0.1-1.3v-1.3h1.8v3.2H48v-7.7h-6.4    v-1.6l6.1-6h-6.1v1.7h-1.8v-3.4h10.2V224.5z"/>
	</g>
</g>
<g>
	<g>
		<path class="st10" d="M32.6,276.9l-0.7,2.5h5l-0.4,1.8h-5l-1.6,6.1h-2l1.6-6.1h-3.2l-1.6,6.1h-1.9l1.7-6.1h-4.2l0.5-1.8h4.2    l0.6-2.5h-4.1l0.5-1.9h4.1l1.6-6.2h1.9l-1.6,6.2h3.2l1.6-6.2h2l-1.6,6.2h5l-0.5,1.9H32.6z M27.4,276.9l-0.7,2.5h3.2l0.7-2.5H27.4z    "/>
		<path class="st10" d="M43.9,285.7h2.7v-3.1h-7.8l7.8-13.7h2v12.1h1.8v1.7h-1.8v3.1h1.8v1.7h-6.5V285.7z M46.6,272.5l-4.8,8.4h4.8    V272.5z"/>
	</g>
</g>
<polygon class="st1" points="110.5,59.8 81.8,59.8 81.8,111.5 110.5,117.3 139.3,111.5 139.3,59.8 "/>
<g>
	<path class="st10" d="M102.3,76.9h8.6c2.2,0,3.8,0.4,4.8,1.2c1,0.8,1.6,2,1.6,3.8c0,1.8-0.7,3-2.1,3.8c2.2,0.8,3.2,2.4,3.2,4.8   c0,3.6-2.3,5.3-6.9,5.3h-6.7c-0.2,0-0.5-0.1-0.6-0.2c-0.2-0.1-0.2-0.3-0.2-0.5V78.4h-1.6c-0.2,0-0.4-0.1-0.5-0.2   c-0.1-0.1-0.2-0.3-0.2-0.5s0.1-0.4,0.2-0.5C101.9,77,102.1,76.9,102.3,76.9z M105.6,78.4v6.7h6c1.2,0,2.2-0.3,2.9-0.9   c0.7-0.6,1.1-1.4,1.1-2.6s-0.4-2-1.1-2.5c-0.8-0.5-2-0.8-3.6-0.8H105.6z M105.6,86.6v7.8h5.9c1.8,0,3.1-0.3,3.9-0.9   c0.8-0.6,1.3-1.6,1.3-2.9c0-2.6-1.6-3.9-4.7-3.9H105.6z"/>
</g>
<g>
	<g>
		<path class="st10" d="M109.7,138.4l-0.7,2.5h5l-0.4,1.8h-5l-1.6,6.1h-2l1.6-6.1h-3.2l-1.6,6.1h-1.9l1.7-6.1h-4.2l0.5-1.8h4.2    l0.6-2.5h-4.1l0.5-1.9h4.1l1.6-6.2h1.9l-1.6,6.2h3.2l1.6-6.2h2l-1.6,6.2h5l-0.5,1.9H109.7z M104.5,138.4l-0.7,2.5h3.2l0.7-2.5    H104.5z"/>
		<path class="st10" d="M117.1,147.2h1.7v-15.1h-2.4v-1.7h2.1c0.8,0,1.4,0.2,1.8,0.5s0.5,0.9,0.5,1.6v14.7h1.5v1.7h-5.2V147.2z"/>
	</g>
</g>
<g>
	<g>
		<path class="st10" d="M107.5,184.7l-0.7,2.5h5l-0.4,1.8h-5l-1.6,6.1h-2l1.6-6.1h-3.2l-1.6,6.1h-1.9l1.7-6.1h-4.2l0.5-1.8h4.2    l0.6-2.5h-4.1l0.5-1.9h4.1l1.6-6.2h1.9l-1.6,6.2h3.2l1.6-6.2h2l-1.6,6.2h5l-0.5,1.9H107.5z M102.3,184.7l-0.7,2.5h3.2l0.7-2.5    H102.3z"/>
		<path class="st10" d="M114.7,190.7c0-1.3,0.4-2.3,1.3-2.9l7.1-4.4v-5.1h-6.5v3h-1.9v-4.7h7.2c1.2,0,2.1,0.2,2.6,0.6    c0.5,0.4,0.7,1.1,0.7,2.2v2.9c0,1.1-0.4,1.9-1.2,2.4l-7.3,4.6v4h6.5v-2.3h2.1v3.9h-10.5V190.7z"/>
	</g>
</g>
<g>
	<g>
		<path class="st10" d="M107.7,230.9l-0.7,2.5h5l-0.4,1.8h-5l-1.6,6.1h-2l1.6-6.1h-3.2l-1.6,6.1h-1.9l1.7-6.1h-4.2l0.5-1.8h4.2    l0.6-2.5h-4.1l0.5-1.9h4.1l1.6-6.2h1.9l-1.6,6.2h3.2l1.6-6.2h2l-1.6,6.2h5l-0.5,1.9H107.7z M102.5,230.9l-0.7,2.5h3.2l0.7-2.5    H102.5z"/>
		<path class="st10" d="M125.1,224.5l-6,6h3.2c1.1,0,1.8,0.2,2.2,0.7c0.4,0.4,0.6,1.2,0.6,2.2v4.6c0,0.5,0,1-0.1,1.4    c-0.1,0.4-0.2,0.8-0.5,1c-0.5,0.6-1.4,0.8-2.8,0.8h-3.7c-1.8,0-2.8-0.7-3-2.1c0-0.4-0.1-0.8-0.1-1.3v-1.3h1.8v3.2h6.4v-7.7h-6.4    v-1.6l6.1-6h-6.1v1.7h-1.8v-3.4h10.2V224.5z"/>
	</g>
</g>
<g>
	<g>
		<path class="st10" d="M107.6,276.9l-0.7,2.5h5l-0.4,1.8h-5l-1.6,6.1h-2l1.6-6.1h-3.2l-1.6,6.1h-1.9l1.7-6.1h-4.2l0.5-1.8h4.2    l0.6-2.5h-4.1l0.5-1.9h4.1l1.6-6.2h1.9l-1.6,6.2h3.2l1.6-6.2h2l-1.6,6.2h5l-0.5,1.9H107.6z M102.4,276.9l-0.7,2.5h3.2l0.7-2.5    H102.4z"/>
		<path class="st10" d="M118.9,285.7h2.7v-3.1h-7.8l7.8-13.7h2v12.1h1.8v1.7h-1.8v3.1h1.8v1.7h-6.5V285.7z M121.6,272.5l-4.8,8.4    h4.8V272.5z"/>
	</g>
</g>
<polygon class="st1" points="185.5,59.8 156.8,59.8 156.8,111.5 185.5,117.3 214.3,111.5 214.3,59.8 "/>
<g>
	<path class="st10" d="M192.3,92c0.1-0.2,0.3-0.3,0.5-0.3c0.2,0,0.4,0.1,0.6,0.3s0.3,0.3,0.3,0.5c0,0.2-0.1,0.3-0.2,0.5   c-1.7,2.1-4.1,3.1-7.2,3.1c-2.7,0-4.9-0.9-6.6-2.7c-1.7-1.8-2.5-4.1-2.5-7c0-2.9,0.8-5.3,2.5-7.1c1.7-1.8,3.8-2.7,6.4-2.7   s4.7,0.5,6.4,1.5c0.3,0.2,0.5,0.4,0.5,0.7v2.7c0,0.2-0.1,0.4-0.2,0.5c-0.2,0.1-0.4,0.2-0.6,0.2s-0.4-0.1-0.6-0.2   c-0.2-0.1-0.2-0.3-0.2-0.5v-2.3c-1.5-0.7-3.2-1.1-5.1-1.1c-2.2,0-4,0.8-5.4,2.3s-2.1,3.5-2.1,6s0.7,4.4,2.1,6s3.2,2.3,5.6,2.3   C189,94.6,190.9,93.8,192.3,92z"/>
</g>
<g>
	<g>
		<path class="st10" d="M184.7,138.4l-0.7,2.5h5l-0.4,1.8h-5l-1.6,6.1h-2l1.6-6.1h-3.2l-1.6,6.1h-1.9l1.7-6.1h-4.2l0.5-1.8h4.2    l0.6-2.5h-4.1l0.5-1.9h4.1l1.6-6.2h1.9l-1.6,6.2h3.2l1.6-6.2h2l-1.6,6.2h5l-0.5,1.9H184.7z M179.5,138.4l-0.7,2.5h3.2l0.7-2.5    H179.5z"/>
		<path class="st10" d="M192.1,147.2h1.7v-15.1h-2.4v-1.7h2.1c0.8,0,1.4,0.2,1.8,0.5s0.5,0.9,0.5,1.6v14.7h1.5v1.7h-5.2V147.2z"/>
	</g>
</g>
<g>
	<g>
		<path class="st10" d="M182.5,184.7l-0.7,2.5h5l-0.4,1.8h-5l-1.6,6.1h-2l1.6-6.1h-3.2l-1.6,6.1h-1.9l1.7-6.1h-4.2l0.5-1.8h4.2    l0.6-2.5h-4.1l0.5-1.9h4.1l1.6-6.2h1.9l-1.6,6.2h3.2l1.6-6.2h2l-1.6,6.2h5l-0.5,1.9H182.5z M177.3,184.7l-0.7,2.5h3.2l0.7-2.5    H177.3z"/>
		<path class="st10" d="M189.7,190.7c0-1.3,0.4-2.3,1.3-2.9l7.1-4.4v-5.1h-6.5v3h-1.9v-4.7h7.2c1.2,0,2.1,0.2,2.6,0.6    c0.5,0.4,0.7,1.1,0.7,2.2v2.9c0,1.1-0.4,1.9-1.2,2.4l-7.3,4.6v4h6.5v-2.3h2.1v3.9h-10.5V190.7z"/>
	</g>
</g>
<g>
	<g>
		<path class="st10" d="M182.7,230.9l-0.7,2.5h5l-0.4,1.8h-5l-1.6,6.1h-2l1.6-6.1h-3.2l-1.6,6.1h-1.9l1.7-6.1h-4.2l0.5-1.8h4.2    l0.6-2.5h-4.1l0.5-1.9h4.1l1.6-6.2h1.9l-1.6,6.2h3.2l1.6-6.2h2l-1.6,6.2h5l-0.5,1.9H182.7z M177.5,230.9l-0.7,2.5h3.2l0.7-2.5    H177.5z"/>
		<path class="st10" d="M200.1,224.5l-6,6h3.2c1.1,0,1.8,0.2,2.2,0.7c0.4,0.4,0.6,1.2,0.6,2.2v4.6c0,0.5,0,1-0.1,1.4    c-0.1,0.4-0.2,0.8-0.5,1c-0.5,0.6-1.4,0.8-2.8,0.8h-3.7c-1.8,0-2.8-0.7-3-2.1c0-0.4-0.1-0.8-0.1-1.3v-1.3h1.8v3.2h6.4v-7.7h-6.4    v-1.6l6.1-6h-6.1v1.7h-1.8v-3.4h10.2V224.5z"/>
	</g>
</g>
<g>
	<g>
		<path class="st10" d="M182.6,276.9l-0.7,2.5h5l-0.4,1.8h-5l-1.6,6.1h-2l1.6-6.1h-3.2l-1.6,6.1h-1.9l1.7-6.1h-4.2l0.5-1.8h4.2    l0.6-2.5h-4.1l0.5-1.9h4.1l1.6-6.2h1.9l-1.6,6.2h3.2l1.6-6.2h2l-1.6,6.2h5l-0.5,1.9H182.6z M177.4,276.9l-0.7,2.5h3.2l0.7-2.5    H177.4z"/>
		<path class="st10" d="M193.9,285.7h2.7v-3.1h-7.8l7.8-13.7h2v12.1h1.8v1.7h-1.8v3.1h1.8v1.7h-6.5V285.7z M196.6,272.5l-4.8,8.4    h4.8V272.5z"/>
	</g>
</g>
<polygon class="st1" points="260.5,59.8 231.8,59.8 231.8,111.5 260.5,117.3 289.3,111.5 289.3,59.8 "/>
<g>
	<path class="st10" d="M253.9,78.4h-1.9c-0.2,0-0.4-0.1-0.5-0.2s-0.2-0.3-0.2-0.5s0.1-0.4,0.2-0.5s0.3-0.2,0.5-0.2h8.3   c2.8,0,5.1,0.9,6.8,2.6c1.7,1.7,2.6,4,2.6,6.9c0,2.9-0.8,5.2-2.5,6.9c-1.7,1.7-4,2.5-6.8,2.5h-5.6c-0.5,0-0.8-0.2-0.8-0.7V78.4z    M255.6,78.4v16h4.8c2.4,0,4.3-0.7,5.6-2.1c1.4-1.4,2-3.3,2-5.8c0-2.5-0.7-4.5-2.1-5.9c-1.4-1.4-3.2-2.1-5.6-2.1H255.6z"/>
</g>
<g>
	<g>
		<path class="st10" d="M259.7,138.4l-0.7,2.5h5l-0.4,1.8h-5l-1.6,6.1h-2l1.6-6.1h-3.2l-1.6,6.1h-1.9l1.7-6.1h-4.2l0.5-1.8h4.2    l0.6-2.5h-4.1l0.5-1.9h4.1l1.6-6.2h1.9l-1.6,6.2h3.2l1.6-6.2h2l-1.6,6.2h5l-0.5,1.9H259.7z M254.5,138.4l-0.7,2.5h3.2l0.7-2.5    H254.5z"/>
		<path class="st10" d="M267.1,147.2h1.7v-15.1h-2.4v-1.7h2.1c0.8,0,1.4,0.2,1.8,0.5s0.5,0.9,0.5,1.6v14.7h1.5v1.7h-5.2V147.2z"/>
	</g>
</g>
<g>
	<g>
		<path class="st10" d="M257.5,184.7l-0.7,2.5h5l-0.4,1.8h-5l-1.6,6.1h-2l1.6-6.1h-3.2l-1.6,6.1h-1.9l1.7-6.1h-4.2l0.5-1.8h4.2    l0.6-2.5h-4.1l0.5-1.9h4.1l1.6-6.2h1.9l-1.6,6.2h3.2l1.6-6.2h2l-1.6,6.2h5l-0.5,1.9H257.5z M252.3,184.7l-0.7,2.5h3.2l0.7-2.5    H252.3z"/>
		<path class="st10" d="M264.7,190.7c0-1.3,0.4-2.3,1.3-2.9l7.1-4.4v-5.1h-6.5v3h-1.9v-4.7h7.2c1.2,0,2.1,0.2,2.6,0.6    c0.5,0.4,0.7,1.1,0.7,2.2v2.9c0,1.1-0.4,1.9-1.2,2.4l-7.3,4.6v4h6.5v-2.3h2.1v3.9h-10.5V190.7z"/>
	</g>
</g>
<g>
	<g>
		<path class="st10" d="M257.7,230.9l-0.7,2.5h5l-0.4,1.8h-5l-1.6,6.1h-2l1.6-6.1h-3.2l-1.6,6.1h-1.9l1.7-6.1h-4.2l0.5-1.8h4.2    l0.6-2.5h-4.1l0.5-1.9h4.1l1.6-6.2h1.9l-1.6,6.2h3.2l1.6-6.2h2l-1.6,6.2h5l-0.5,1.9H257.7z M252.5,230.9l-0.7,2.5h3.2l0.7-2.5    H252.5z"/>
		<path class="st10" d="M275.1,224.5l-6,6h3.2c1.1,0,1.8,0.2,2.2,0.7c0.4,0.4,0.6,1.2,0.6,2.2v4.6c0,0.5,0,1-0.1,1.4    c-0.1,0.4-0.2,0.8-0.5,1c-0.5,0.6-1.4,0.8-2.8,0.8h-3.7c-1.8,0-2.8-0.7-3-2.1c0-0.4-0.1-0.8-0.1-1.3v-1.3h1.8v3.2h6.4v-7.7h-6.4    v-1.6l6.1-6h-6.1v1.7h-1.8v-3.4h10.2V224.5z"/>
	</g>
</g>
<g>
	<g>
		<path class="st10" d="M257.6,276.9l-0.7,2.5h5l-0.4,1.8h-5l-1.6,6.1h-2l1.6-6.1h-3.2l-1.6,6.1h-1.9l1.7-6.1h-4.2l0.5-1.8h4.2    l0.6-2.5h-4.1l0.5-1.9h4.1l1.6-6.2h1.9l-1.6,6.2h3.2l1.6-6.2h2l-1.6,6.2h5l-0.5,1.9H257.6z M252.4,276.9l-0.7,2.5h3.2l0.7-2.5    H252.4z"/>
		<path class="st10" d="M268.9,285.7h2.7v-3.1h-7.8l7.8-13.7h2v12.1h1.8v1.7h-1.8v3.1h1.8v1.7h-6.5V285.7z M271.6,272.5l-4.8,8.4    h4.8V272.5z"/>
	</g>
</g>
<polygon class="st1" points="335.5,59.8 306.8,59.8 306.8,111.5 335.5,117.3 364.3,111.5 364.3,59.8 "/>
<g>
	<path class="st10" d="M327.1,76.9h14.6c0.5,0,0.8,0.2,0.8,0.7v2.5c0,0.2-0.1,0.4-0.2,0.5c-0.2,0.1-0.4,0.2-0.6,0.2   c-0.2,0-0.4-0.1-0.6-0.2c-0.2-0.1-0.2-0.3-0.2-0.5v-1.8h-10.2v7.2h8.8v-1.1c0-0.2,0.1-0.4,0.2-0.5s0.3-0.2,0.6-0.2   c0.2,0,0.4,0.1,0.6,0.2s0.2,0.3,0.2,0.5v3.8c0,0.2-0.1,0.4-0.2,0.5s-0.3,0.2-0.6,0.2c-0.2,0-0.4-0.1-0.6-0.2s-0.2-0.3-0.2-0.5V87   h-8.8v7.3h11c0.2,0,0.5,0.1,0.6,0.2s0.2,0.3,0.2,0.5c0,0.2-0.1,0.4-0.2,0.5c-0.2,0.1-0.4,0.2-0.6,0.2h-11.9c-0.5,0-0.8-0.2-0.8-0.7   V78.4h-1.8c-0.2,0-0.4-0.1-0.5-0.2c-0.1-0.1-0.2-0.3-0.2-0.5s0.1-0.4,0.2-0.5C326.7,77,326.9,76.9,327.1,76.9z"/>
</g>
<g>
	<g>
		<path class="st10" d="M334.7,138.4l-0.7,2.5h5l-0.4,1.8h-5l-1.6,6.1h-2l1.6-6.1h-3.2l-1.6,6.1h-1.9l1.7-6.1h-4.2l0.5-1.8h4.2    l0.6-2.5h-4.1l0.5-1.9h4.1l1.6-6.2h1.9l-1.6,6.2h3.2l1.6-6.2h2l-1.6,6.2h5l-0.5,1.9H334.7z M329.5,138.4l-0.7,2.5h3.2l0.7-2.5    H329.5z"/>
		<path class="st10" d="M342.1,147.2h1.7v-15.1h-2.4v-1.7h2.1c0.8,0,1.4,0.2,1.8,0.5s0.5,0.9,0.5,1.6v14.7h1.5v1.7h-5.2V147.2z"/>
	</g>
</g>
<g>
	<g>
		<path class="st10" d="M332.5,184.7l-0.7,2.5h5l-0.4,1.8h-5l-1.6,6.1h-2l1.6-6.1h-3.2l-1.6,6.1h-1.9l1.7-6.1h-4.2l0.5-1.8h4.2    l0.6-2.5h-4.1l0.5-1.9h4.1l1.6-6.2h1.9l-1.6,6.2h3.2l1.6-6.2h2l-1.6,6.2h5l-0.5,1.9H332.5z M327.3,184.7l-0.7,2.5h3.2l0.7-2.5    H327.3z"/>
		<path class="st10" d="M339.7,190.7c0-1.3,0.4-2.3,1.3-2.9l7.1-4.4v-5.1h-6.5v3h-1.9v-4.7h7.2c1.2,0,2.1,0.2,2.6,0.6    c0.5,0.4,0.7,1.1,0.7,2.2v2.9c0,1.1-0.4,1.9-1.2,2.4l-7.3,4.6v4h6.5v-2.3h2.1v3.9h-10.5V190.7z"/>
	</g>
</g>
<g>
	<g>
		<path class="st10" d="M332.7,230.9l-0.7,2.5h5l-0.4,1.8h-5l-1.6,6.1h-2l1.6-6.1h-3.2l-1.6,6.1h-1.9l1.7-6.1h-4.2l0.5-1.8h4.2    l0.6-2.5h-4.1l0.5-1.9h4.1l1.6-6.2h1.9l-1.6,6.2h3.2l1.6-6.2h2l-1.6,6.2h5l-0.5,1.9H332.7z M327.5,230.9l-0.7,2.5h3.2l0.7-2.5    H327.5z"/>
		<path class="st10" d="M350.1,224.5l-6,6h3.2c1.1,0,1.8,0.2,2.2,0.7c0.4,0.4,0.6,1.2,0.6,2.2v4.6c0,0.5,0,1-0.1,1.4    c-0.1,0.4-0.2,0.8-0.5,1c-0.5,0.6-1.4,0.8-2.8,0.8h-3.7c-1.8,0-2.8-0.7-3-2.1c0-0.4-0.1-0.8-0.1-1.3v-1.3h1.8v3.2h6.4v-7.7h-6.4    v-1.6l6.1-6h-6.1v1.7h-1.8v-3.4h10.2V224.5z"/>
	</g>
</g>
<g>
	<g>
		<path class="st10" d="M332.6,276.9l-0.7,2.5h5l-0.4,1.8h-5l-1.6,6.1h-2l1.6-6.1h-3.2l-1.6,6.1h-1.9l1.7-6.1h-4.2l0.5-1.8h4.2    l0.6-2.5h-4.1l0.5-1.9h4.1l1.6-6.2h1.9l-1.6,6.2h3.2l1.6-6.2h2l-1.6,6.2h5l-0.5,1.9H332.6z M327.4,276.9l-0.7,2.5h3.2l0.7-2.5    H327.4z"/>
		<path class="st10" d="M343.9,285.7h2.7v-3.1h-7.8l7.8-13.7h2v12.1h1.8v1.7h-1.8v3.1h1.8v1.7h-6.5V285.7z M346.6,272.5l-4.8,8.4    h4.8V272.5z"/>
	</g>
</g>
<g>
	<g>
		<path class="st10" d="M578.9,89.7l-0.7,2.5h5l-0.4,1.8h-5l-1.6,6.1h-2l1.6-6.1h-3.2l-1.6,6.1H569l1.7-6.1h-4.2l0.5-1.8h4.2    l0.6-2.5h-4.1l0.5-1.9h4.1l1.6-6.2h1.9l-1.6,6.2h3.2l1.6-6.2h2l-1.6,6.2h5l-0.5,1.9H578.9z M573.7,89.7l-0.7,2.5h3.2l0.7-2.5    H573.7z"/>
		<path class="st10" d="M586.3,98.5h1.7V83.4h-2.4v-1.7h2.1c0.8,0,1.4,0.2,1.8,0.5s0.5,0.9,0.5,1.6v14.7h1.5v1.7h-5.2V98.5z"/>
	</g>
</g>
<g>
	<g>
		<path class="st10" d="M576.8,136.1l-0.7,2.5h5l-0.4,1.8h-5l-1.6,6.1h-2l1.6-6.1h-3.2l-1.6,6.1h-1.9l1.7-6.1h-4.2l0.5-1.8h4.2    l0.6-2.5h-4.1l0.5-1.9h4.1l1.6-6.2h1.9l-1.6,6.2h3.2l1.6-6.2h2l-1.6,6.2h5l-0.5,1.9H576.8z M571.6,136.1l-0.7,2.5h3.2l0.7-2.5    H571.6z"/>
		<path class="st10" d="M584,142c0-1.3,0.4-2.3,1.3-2.9l7.1-4.4v-5.1h-6.5v3H584V128h7.2c1.2,0,2.1,0.2,2.6,0.6    c0.5,0.4,0.7,1.1,0.7,2.2v2.9c0,1.1-0.4,1.9-1.2,2.4l-7.3,4.6v4h6.5v-2.3h2.1v3.9H584V142z"/>
	</g>
</g>
<g>
	<g>
		<path class="st10" d="M576.9,182.2l-0.7,2.5h5l-0.4,1.8h-5l-1.6,6.1h-2l1.6-6.1h-3.2l-1.6,6.1H567l1.7-6.1h-4.2l0.5-1.8h4.2    l0.6-2.5h-4.1l0.5-1.9h4.1l1.6-6.2h1.9l-1.6,6.2h3.2l1.6-6.2h2l-1.6,6.2h5l-0.5,1.9H576.9z M571.7,182.2l-0.7,2.5h3.2l0.7-2.5    H571.7z"/>
		<path class="st10" d="M594.3,175.9l-6,6h3.2c1.1,0,1.8,0.2,2.2,0.7c0.4,0.4,0.6,1.2,0.6,2.2v4.6c0,0.5,0,1-0.1,1.4    c-0.1,0.4-0.2,0.8-0.5,1c-0.5,0.6-1.4,0.8-2.8,0.8h-3.7c-1.8,0-2.8-0.7-3-2.1c0-0.4-0.1-0.8-0.1-1.3V188h1.8v3.2h6.4v-7.7h-6.4    v-1.6l6.1-6h-6.1v1.7h-1.8v-3.4h10.2V175.9z"/>
	</g>
</g>
<g>
	<g>
		<path class="st10" d="M576.8,228.2l-0.7,2.5h5l-0.4,1.8h-5l-1.6,6.1h-2l1.6-6.1h-3.2l-1.6,6.1H567l1.7-6.1h-4.2l0.5-1.8h4.2    l0.6-2.5h-4.1l0.5-1.9h4.1l1.6-6.2h1.9l-1.6,6.2h3.2l1.6-6.2h2l-1.6,6.2h5l-0.5,1.9H576.8z M571.7,228.2l-0.7,2.5h3.2l0.7-2.5    H571.7z"/>
		<path class="st10" d="M588.2,237h2.7v-3.1h-7.8l7.8-13.7h2v12.1h1.8v1.7h-1.8v3.1h1.8v1.7h-6.5V237z M590.9,223.9l-4.8,8.4h4.8    V223.9z"/>
	</g>
</g>
<g>
	<g>
		<path class="st10" d="M576.9,273.7l-0.7,2.5h5l-0.4,1.8h-5l-1.6,6.1h-2l1.6-6.1h-3.2l-1.6,6.1H567l1.7-6.1h-4.2l0.5-1.8h4.2    l0.6-2.5h-4.1l0.5-1.9h4.1l1.6-6.2h1.9l-1.6,6.2h3.2l1.6-6.2h2l-1.6,6.2h5l-0.5,1.9H576.9z M571.7,273.7l-0.7,2.5h3.2l0.7-2.5    H571.7z"/>
		<path class="st10" d="M592,272.9c0.9,0,1.6,0.2,1.9,0.6c0.3,0.4,0.4,1,0.4,1.8v5.9c0,0.9-0.1,1.6-0.4,1.9c-0.3,0.4-0.6,0.6-1,0.8    s-0.9,0.2-1.5,0.2h-4.6c-1.6,0-2.5-0.6-2.7-1.8c-0.1-0.4-0.1-0.8-0.1-1.2v-1.7h1.9v3h6.4v-7.9h-8v-8.9h9.3v1.7h-7.4v5.5H592z"/>
	</g>
</g>
<g>
	<g>
		<path class="st0" d="M452.7,16.4c0-1.6,0.5-2.7,1.6-3.4l8.4-5.2v-6H455v3.6h-2.3v-5.5h8.5c1.4,0,2.4,0.3,3,0.8    c0.5,0.5,0.8,1.3,0.8,2.6v3.4c0,1.3-0.5,2.3-1.4,2.9L455,15v4.7h7.7V17h2.4v4.7h-12.4V16.4z"/>
		<path class="st0" d="M469.8,18.8c0.4,0,0.7,0.2,1,0.5c0.3,0.3,0.4,0.7,0.4,1.1s-0.1,0.8-0.4,1c-0.3,0.3-0.6,0.4-1,0.4    s-0.8-0.1-1-0.4s-0.4-0.6-0.4-1s0.2-0.8,0.5-1.1C469,18.9,469.4,18.8,469.8,18.8z"/>
		<path class="st0" d="M495.4-0.2c1.3,0,2.1,0.2,2.6,0.7c0.4,0.5,0.7,1.4,0.7,2.9v2.1c0,1.1-0.2,1.9-0.7,2.4    c-0.2,0.3-0.5,0.5-0.9,0.7s-0.8,0.5-1.4,0.8l-6.4,4v6.1h1.9v2H485v-2h1.8V1.8H485v-2H495.4z M496.6,1.8h-7.3v9.4l7.3-4.5V1.8z"/>
		<path class="st0" d="M502.3,19.7h1.8V1.8h-1.8v-2h6.1v2h-1.9v17.9h6.1v-3.4h2v5.4h-12.3V19.7z"/>
		<path class="st0" d="M533.7,19.7v2h-5.7v-2h1.6l-1.5-5.8h-6.1l-1.5,5.8h1.6v2h-5.7v-2h1.8l5.1-19.8h3.4l5,19.8H533.7z M527.7,12.1    l-2.6-10.2l-2.6,10.2H527.7z"/>
		<path class="st0" d="M546.7-0.2v2h-1.1l-5.1,9.1v8.8h1.9v2h-6.1v-2h1.8v-8.8l-4.8-9.1H532v-2h4.7v2h-1l3.7,7.1l3.8-7.1h-1v-2    H546.7z"/>
		<path class="st0" d="M557.2-0.2c1.2,0,2,0.3,2.6,1c0.5,0.7,0.8,1.6,0.8,2.9v14c0,1.4-0.2,2.4-0.7,3c-0.5,0.6-1.3,0.9-2.5,0.9h-5.6    c-1.9,0-3-0.7-3.3-2.1c-0.1-0.4-0.2-0.9-0.2-1.4V3.7c0-1.3,0.2-2.2,0.6-2.8c0.5-0.7,1.3-1,2.6-1H557.2z M550.6,19.7h7.6V1.8h-7.6    V19.7z"/>
		<path class="st0" d="M572.5,11.4h-4.1v8.3h1.9v2h-6.1v-2h1.8V1.8h-1.8v-2h13.6v5.4h-2V1.8h-7.5v7.6h4.1V7.3h2v6.1h-2V11.4z"/>
		<path class="st0" d="M589.5,11.4h-4.1v8.3h1.9v2h-6.1v-2h1.8V1.8h-1.8v-2h13.6v5.4h-2V1.8h-7.5v7.6h4.1V7.3h2v6.1h-2V11.4z"/>
		<path class="st0" d="M606,11c0.4,0.3,0.8,0.5,1.1,0.7c0.3,0.2,0.6,0.4,0.9,0.7c0.5,0.5,0.8,1,0.8,1.7V19c0,0.9-0.3,1.5-0.9,2    c-0.5,0.4-1.2,0.6-2.1,0.6h-9.3v-5.4h2.1v3.4h7.9V14l-7.6-4.7c-0.7-0.4-1.2-0.8-1.7-1.2s-0.7-1-0.7-1.7V2.8c0-1.1,0.3-1.9,0.8-2.4    c0.5-0.4,1.3-0.6,2.4-0.6h8.8v5.4h-2.1V1.8h-7.6v4.7L606,11z"/>
		<path class="st0" d="M622.4,3.2c0-2.2,1-3.3,3.1-3.3h9.2v5.4h-2.3V1.8h-7.6v17.9h7.6v-6.8l-4,2.5v-2.1l6.4-4v12.4h-8.6    c-1.4,0-2.3-0.3-2.8-0.8c-0.5-0.5-0.8-1.5-0.8-2.9V3.2z"/>
		<path class="st0" d="M654.8,19.7v2h-5.8v-2h1.6l-5-8l-3.1,1.9v6.1h1.9v2h-6.1v-2h1.8V1.8h-1.8v-2h10.4c1.3,0,2.1,0.2,2.6,0.7    c0.4,0.5,0.7,1.5,0.7,2.9v1.8c0,0.7-0.1,1.3-0.2,1.7c-0.1,0.4-0.4,0.8-0.7,1.2c-0.3,0.3-0.8,0.7-1.4,1c-0.6,0.3-1.3,0.8-2.2,1.3    l5.7,9.1H654.8z M642.6,11.2l7.3-4.5V1.8h-7.3V11.2z"/>
		<path class="st0" d="M665.9-0.2c1.2,0,2,0.3,2.6,1c0.5,0.7,0.8,1.6,0.8,2.9v14c0,1.4-0.2,2.4-0.7,3c-0.5,0.6-1.3,0.9-2.5,0.9h-5.6    c-1.9,0-3-0.7-3.3-2.1c-0.1-0.4-0.2-0.9-0.2-1.4V3.7c0-1.3,0.2-2.2,0.6-2.8c0.5-0.7,1.3-1,2.6-1H665.9z M659.3,19.7h7.6V1.8h-7.6    V19.7z"/>
		<path class="st0" d="M677.2,21.7c-1.7,0-2.6-1-2.6-2.9v-17h-1.8v-2h6.1v2H677v17.9h7.9V1.8H683v-2h6.1v2h-1.8v16.8    c0,2-0.9,3-2.6,3H677.2z"/>
		<path class="st0" d="M703.2-0.2c1.3,0,2.1,0.2,2.6,0.7c0.4,0.5,0.7,1.4,0.7,2.9v2.1c0,1.1-0.2,1.9-0.7,2.4    c-0.2,0.3-0.5,0.5-0.9,0.7s-0.8,0.5-1.4,0.8l-6.4,4v6.1h1.9v2h-6.1v-2h1.8V1.8h-1.8v-2H703.2z M704.3,1.8H697v9.4l7.3-4.5V1.8z"/>
	</g>
</g>
<polyline class="st9" points="371.5,140.1 448.2,140.1 448.2,333.1 716.2,333.1 716.2,201.3 915.2,201.3 "/>
<line class="st11" x1="371.5" y1="185.9" x2="551" y2="185.9"/>
<g>
	<g>
		<path class="st0" d="M857.8,1.8l-7.1,7.1h3.8c1.3,0,2.2,0.3,2.6,0.8c0.5,0.5,0.7,1.4,0.7,2.6v5.4c0,0.6,0,1.2-0.1,1.7    c-0.1,0.5-0.3,0.9-0.6,1.2c-0.6,0.7-1.7,1-3.3,1h-4.4c-2.1,0-3.3-0.8-3.5-2.4c-0.1-0.5-0.1-1-0.1-1.5v-1.5h2.1v3.7h7.5v-9.1h-7.5    V8.9l7.2-7.1h-7.2v2h-2.1v-4h12V1.8z"/>
		<path class="st0" d="M862.5,18.8c0.4,0,0.7,0.2,1,0.5c0.3,0.3,0.4,0.7,0.4,1.1s-0.1,0.8-0.4,1c-0.3,0.3-0.6,0.4-1,0.4    s-0.8-0.1-1-0.4s-0.4-0.6-0.4-1s0.2-0.8,0.5-1.1C861.7,18.9,862.1,18.8,862.5,18.8z"/>
		<path class="st0" d="M886,11.4h-4.1v8.3h1.9v2h-6.1v-2h1.8V1.8h-1.8v-2h13.6v5.4h-2V1.8h-7.5v7.6h4.1V7.3h2v6.1h-2V11.4z"/>
		<path class="st0" d="M899.4,19.7h1.9v2h-6.1v-2h1.8V1.8h-1.8v-2h6.1v2h-1.9V19.7z"/>
		<path class="st0" d="M922.6,1.8h-1.8v19.8h-2.9l-8.2-17v15h1.9v2h-6.1v-2h1.8V1.8h-1.8v-2h4.5l8.4,17.3V1.8h-1.9v-2h6.1V1.8z"/>
		<path class="st0" d="M942.4,19.7v2h-5.7v-2h1.6l-1.5-5.8h-6.1l-1.5,5.8h1.6v2h-5.7v-2h1.8l5.1-19.8h3.4l5,19.8H942.4z M936.4,12.1    l-2.6-10.2l-2.6,10.2H936.4z"/>
		<path class="st0" d="M945.1,19.7h1.8V1.8h-1.8v-2h6.1v2h-1.9v17.9h6.1v-3.4h2v5.4h-12.3V19.7z"/>
		<path class="st0" d="M968.6,11c0.4,0.3,0.8,0.5,1.1,0.7c0.3,0.2,0.6,0.4,0.9,0.7c0.5,0.5,0.8,1,0.8,1.7V19c0,0.9-0.3,1.5-0.9,2    c-0.5,0.4-1.2,0.6-2.1,0.6H959v-5.4h2.1v3.4h7.9V14l-7.6-4.7c-0.7-0.4-1.2-0.8-1.7-1.2s-0.7-1-0.7-1.7V2.8c0-1.1,0.3-1.9,0.8-2.4    c0.5-0.4,1.3-0.6,2.4-0.6h8.8v5.4H969V1.8h-7.6v4.7L968.6,11z"/>
		<path class="st0" d="M994.1,7.8c0.4-0.3,0.9-0.5,1.5-0.5s1.1,0.2,1.5,0.6c0.4,0.4,0.6,1,0.6,1.9v9.3c0,0.8-0.1,1.4-0.4,1.7    c-0.5,0.6-1.2,0.9-2.2,0.9H985v-2h1.8V1.8H985v-2h6.1c2,0,3,0.9,3,2.6V7.8z M991.7,9.3V1.8h-2.5v9.1L991.7,9.3z M995.4,9.3    l-6.2,3.9v6.5h6.2V9.3z"/>
		<path class="st0" d="M1017.8,19.7v2h-5.8v-2h1.6l-5-8l-3.1,1.9v6.1h1.9v2h-6.1v-2h1.8V1.8h-1.8v-2h10.4c1.3,0,2.1,0.2,2.6,0.7    c0.4,0.5,0.7,1.5,0.7,2.9v1.8c0,0.7-0.1,1.3-0.2,1.7c-0.1,0.4-0.4,0.8-0.7,1.2c-0.3,0.3-0.8,0.7-1.4,1c-0.6,0.3-1.3,0.8-2.2,1.3    l5.7,9.1H1017.8z M1005.6,11.2l7.3-4.5V1.8h-7.3V11.2z"/>
		<path class="st0" d="M1036.2,19.7v2h-5.7v-2h1.6l-1.5-5.8h-6.1l-1.5,5.8h1.6v2h-5.7v-2h1.8l5.1-19.8h3.4l5,19.8H1036.2z     M1030.2,12.1l-2.6-10.2l-2.6,10.2H1030.2z"/>
		<path class="st0" d="M1048.8,16.3h2v5.4h-8.9c-1.6,0-2.6-0.6-3-1.9c-0.1-0.4-0.2-0.8-0.2-1.2V3c0-1.4,0.5-2.4,1.5-2.9    c0.4-0.2,0.8-0.3,1.4-0.3h9.2v5.4h-2V1.8h-7.7v17.9h7.7V16.3z"/>
		<path class="st0" d="M1068.9,19.7v2h-3.3l-7.3-10.9v8.9h1.9v2h-6.1v-2h1.8V1.8h-1.8v-2h6.1v2h-2v8.1l7.4-10.1h3.1v2h-1.9l-6.1,8.5    l6.3,9.4H1068.9z"/>
		<path class="st0" d="M1082,7.3v6.1h-2v-2.1h-4.1v8.3h7.5v-3.4h2v5.4h-13.6v-2h1.8V1.8h-1.8v-2h13.6v5.4h-2V1.8h-7.5v7.6h4.1V7.3    H1082z"/>
		<path class="st0" d="M1091.5,19.7h1.8V1.8h-3.7v3.4h-2.1v-5.4h13.9v5.4h-2.1V1.8h-3.7v17.9h1.9v2h-6.1V19.7z"/>
	</g>
</g>
<g>
	<g>
		<path class="st10" d="M941.1,196.2h1.8v-17.6h-3.6v3.4h-2.1v-5.3h13.7v5.3h-2.1v-3.4h-3.6v17.6h1.9v1.9h-6V196.2z"/>
		<path class="st10" d="M962.1,176.7c1.2,0,2,0.3,2.5,1c0.5,0.6,0.8,1.6,0.8,2.8v13.8c0,1.4-0.2,2.4-0.7,3c-0.5,0.6-1.3,0.9-2.5,0.9    h-5.5c-1.8,0-2.9-0.7-3.2-2.1c-0.1-0.4-0.2-0.9-0.2-1.4v-14.2c0-1.3,0.2-2.2,0.6-2.8c0.5-0.7,1.3-1,2.5-1H962.1z M955.6,196.2h7.5    v-17.6h-7.5V196.2z"/>
		<path class="st10" d="M979.2,176.7c1.3,0,2.1,0.2,2.5,0.7s0.7,1.4,0.7,2.8v2.1c0,1.1-0.2,1.9-0.7,2.4c-0.2,0.2-0.5,0.5-0.9,0.7    c-0.4,0.2-0.8,0.5-1.4,0.8l-6.3,3.9v6h1.9v1.9h-6v-1.9h1.8v-17.5H969v-2H979.2z M980.3,178.7h-7.2v9.2l7.2-4.4V178.7z"/>
		<path class="st10" d="M1007.1,183.8c0,0.7-0.2,1.4-0.5,1.9c-0.4,0.5-0.7,0.8-1.2,0.8c0.5,0,1,0.3,1.5,0.8c0.5,0.6,0.8,1.3,0.8,2.2    v4.9c0,1.3-0.3,2.2-0.9,2.9c-0.6,0.6-1.7,1-3.1,1h-4.2c-1.5,0-2.5-0.3-3.1-1c-0.6-0.7-0.9-1.6-0.9-2.8v-4.8c0-0.9,0.3-1.7,0.9-2.3    c0.4-0.5,0.9-0.8,1.5-0.8c-0.4,0-0.8-0.3-1.2-0.8c-0.4-0.5-0.6-1.1-0.6-1.8v-3.7c0-1.6,0.6-2.6,1.7-3.1c0.4-0.2,0.9-0.3,1.5-0.3    h4.5c1.1,0,1.9,0.3,2.5,1c0.5,0.6,0.7,1.4,0.7,2.4V183.8z M1005.3,187.7h-7.5v8.6h7.5V187.7z M998.3,185.5h6.6v-7h-6.6V185.5z"/>
	</g>
</g>
<polyline class="st8" points="617,138.8 716.5,138.8 716.5,172.3 885.8,172.3 "/>
<g>
	<path class="st10" d="M114.7,42.1v4c0,0.1,0,0.2-0.1,0.3c-0.1,0.1-0.2,0.1-0.3,0.1c-0.1,0-0.2,0-0.3-0.1c-0.1-0.1-0.1-0.2-0.1-0.3   v-9.9h-1.1c-0.1,0-0.2,0-0.3-0.1s-0.1-0.2-0.1-0.3c0-0.1,0-0.2,0.1-0.3s0.2-0.1,0.3-0.1h5.7c2.6,0,3.9,1.1,3.9,3.4   c0,1.6-0.7,2.7-2.1,3.1l2.3,4c0,0,0,0.1,0,0.2c0,0.2-0.1,0.3-0.2,0.4c-0.1,0.1-0.3,0.1-0.4,0.1c-0.1,0-0.2-0.1-0.3-0.2l-2.5-4.2   c-0.3,0-0.6,0-0.8,0H114.7z M114.7,36.2v5.1h3.6c2,0,3-0.9,3-2.6c0-0.9-0.2-1.5-0.7-1.9c-0.5-0.4-1.2-0.6-2.2-0.6H114.7z"/>
	<path class="st10" d="M124.6,45.5c-0.6-0.7-1-1.5-1-2.5s0.3-1.9,1-2.5s1.5-1,2.5-1c1,0,1.8,0.3,2.5,1s1,1.5,1,2.6s-0.3,1.9-1,2.5   c-0.6,0.7-1.5,1-2.5,1C126.1,46.5,125.2,46.1,124.6,45.5z M127.1,45.6c0.7,0,1.3-0.3,1.8-0.8s0.7-1.2,0.7-2c0-0.8-0.2-1.5-0.7-2   c-0.5-0.5-1.1-0.8-1.8-0.8s-1.3,0.3-1.8,0.8c-0.5,0.5-0.7,1.2-0.7,2c0,0.8,0.2,1.4,0.7,2S126.4,45.6,127.1,45.6z"/>
	<path class="st10" d="M139.1,45.5h0.8c0.1,0,0.2,0,0.3,0.1s0.1,0.2,0.1,0.3c0,0.1,0,0.2-0.1,0.3s-0.2,0.1-0.3,0.1h-1   c-0.7,0-1.1-0.4-1.1-1.2c-0.7,0.9-1.6,1.4-2.7,1.4c-0.6,0-1.2-0.2-1.6-0.5c-0.4-0.3-0.6-0.8-0.6-1.4v-3.8c0-0.2-0.2-0.3-0.5-0.3   h-0.7c-0.1,0-0.2,0-0.3-0.1c-0.1-0.1-0.1-0.2-0.1-0.3s0-0.2,0.1-0.3s0.2-0.1,0.3-0.1h0.7c1,0,1.5,0.4,1.5,1.2v3.8   c0,0.4,0.1,0.6,0.3,0.8c0.2,0.2,0.5,0.3,0.9,0.3c1.1,0,2-0.6,2.6-1.7v-4.1c0-0.1,0-0.2,0.1-0.3c0.1-0.1,0.2-0.1,0.3-0.1   c0.1,0,0.2,0,0.3,0.1c0.1,0.1,0.1,0.2,0.1,0.3v5.3C138.7,45.3,138.8,45.5,139.1,45.5z"/>
	<path class="st10" d="M141.8,40.4H141c-0.1,0-0.2,0-0.3-0.1c-0.1-0.1-0.1-0.2-0.1-0.3s0-0.2,0.1-0.3c0.1-0.1,0.2-0.1,0.3-0.1h1   c0.7,0,1.1,0.4,1.1,1.2c0.7-0.9,1.6-1.4,2.7-1.4c0.6,0,1.2,0.2,1.6,0.5s0.6,0.8,0.6,1.4v3.8c0,0.2,0.2,0.3,0.5,0.3h0.7   c0.1,0,0.2,0,0.3,0.1c0.1,0.1,0.1,0.2,0.1,0.3s0,0.2-0.1,0.3s-0.2,0.1-0.3,0.1h-0.7c-1,0-1.5-0.4-1.5-1.2v-3.8   c0-0.4-0.1-0.6-0.3-0.8c-0.2-0.2-0.5-0.3-0.9-0.3c-1.1,0-2,0.6-2.6,1.7v4.1c0,0.1,0,0.2-0.1,0.3c-0.1,0.1-0.2,0.1-0.3,0.1   c-0.1,0-0.2,0-0.3-0.1c-0.1-0.1-0.1-0.2-0.1-0.3v-5.3C142.1,40.5,142,40.4,141.8,40.4z"/>
	<path class="st10" d="M156,33.6h-1.2c-0.1,0-0.2,0-0.3-0.1c-0.1-0.1-0.1-0.2-0.1-0.3s0-0.2,0.1-0.3c0.1-0.1,0.2-0.1,0.3-0.1h1.7   c0.1,0,0.2,0,0.3,0.1c0.1,0.1,0.1,0.2,0.1,0.3v11.9c0,0.2,0.1,0.3,0.4,0.3h0.8c0.1,0,0.2,0,0.3,0.1c0.1,0.1,0.1,0.2,0.1,0.3   c0,0.1,0,0.2-0.1,0.3c-0.1,0.1-0.2,0.1-0.3,0.1h-1c-0.8,0-1.2-0.4-1.1-1.3c-0.3,0.4-0.6,0.8-1,1c-0.4,0.3-0.9,0.4-1.4,0.4   c-1.1,0-1.9-0.3-2.4-1c-0.5-0.7-0.8-1.5-0.8-2.5c0-1,0.3-1.8,0.8-2.5c0.6-0.7,1.3-1,2.3-1c1,0,1.8,0.3,2.5,1V33.6z M153.6,40.2   c-0.7,0-1.2,0.2-1.6,0.7c-0.4,0.5-0.6,1.2-0.6,2c0,0.8,0.2,1.5,0.6,2c0.4,0.5,1,0.7,1.6,0.7c1,0,1.8-0.6,2.4-1.7v-2.6   c-0.3-0.3-0.7-0.6-1.1-0.8C154.4,40.3,154,40.2,153.6,40.2z"/>
	<path class="st10" d="M165.5,42.1v4c0,0.1,0,0.2-0.1,0.3c-0.1,0.1-0.2,0.1-0.3,0.1c-0.1,0-0.2,0-0.3-0.1c-0.1-0.1-0.1-0.2-0.1-0.3   v-9.9h-1.1c-0.1,0-0.2,0-0.3-0.1s-0.1-0.2-0.1-0.3c0-0.1,0-0.2,0.1-0.3s0.2-0.1,0.3-0.1h5.7c2.6,0,3.9,1.1,3.9,3.4   c0,1.6-0.7,2.7-2.1,3.1l2.3,4c0,0,0,0.1,0,0.2c0,0.2-0.1,0.3-0.2,0.4c-0.1,0.1-0.3,0.1-0.4,0.1c-0.1,0-0.2-0.1-0.3-0.2l-2.5-4.2   c-0.3,0-0.6,0-0.8,0H165.5z M165.5,36.2v5.1h3.6c2,0,3-0.9,3-2.6c0-0.9-0.2-1.5-0.7-1.9c-0.5-0.4-1.2-0.6-2.2-0.6H165.5z"/>
	<path class="st10" d="M175.4,45.5c-0.6-0.7-1-1.5-1-2.5s0.3-1.9,1-2.5s1.5-1,2.5-1c1,0,1.8,0.3,2.5,1s1,1.5,1,2.6s-0.3,1.9-1,2.5   c-0.6,0.7-1.5,1-2.5,1C176.9,46.5,176.1,46.1,175.4,45.5z M177.9,45.6c0.7,0,1.3-0.3,1.8-0.8s0.7-1.2,0.7-2c0-0.8-0.2-1.5-0.7-2   c-0.5-0.5-1.1-0.8-1.8-0.8s-1.3,0.3-1.8,0.8c-0.5,0.5-0.7,1.2-0.7,2c0,0.8,0.2,1.4,0.7,2S177.2,45.6,177.9,45.6z"/>
	<path class="st10" d="M183.3,33.6h-1.2c-0.1,0-0.2,0-0.3-0.1s-0.1-0.2-0.1-0.3s0-0.2,0.1-0.3s0.2-0.1,0.3-0.1h1.7   c0.1,0,0.2,0,0.3,0.1s0.2,0.2,0.2,0.3v7.5c0.6-0.9,1.4-1.4,2.4-1.4s1.8,0.3,2.3,1c0.5,0.6,0.8,1.5,0.8,2.6c0,1.1-0.3,1.9-0.8,2.6   c-0.6,0.7-1.3,1-2.3,1c-0.9,0-1.8-0.3-2.5-1v0.6c0,0.1,0,0.2-0.1,0.3c-0.1,0.1-0.2,0.1-0.3,0.1c-0.1,0-0.2,0-0.3-0.1   c-0.1-0.1-0.1-0.2-0.1-0.3V33.6z M184.3,44.6c0.8,0.7,1.6,1.1,2.3,1.1c0.7,0,1.3-0.3,1.7-0.8c0.4-0.5,0.6-1.2,0.6-2s-0.2-1.5-0.6-2   c-0.4-0.5-1-0.7-1.6-0.7c-1,0-1.8,0.6-2.4,1.7V44.6z"/>
	<path class="st10" d="M193.3,46.1c0,0.1,0,0.2-0.1,0.3c-0.1,0.1-0.2,0.1-0.3,0.1c-0.1,0-0.2,0-0.3-0.1c-0.1-0.1-0.1-0.2-0.1-0.3   v-5.7h-1.2c-0.1,0-0.2,0-0.3-0.1c-0.1-0.1-0.1-0.2-0.1-0.3s0-0.2,0.1-0.3c0.1-0.1,0.2-0.1,0.3-0.1h1.7c0.3,0,0.4,0.1,0.4,0.4V46.1z    M192.3,36.9c-0.1-0.1-0.2-0.3-0.2-0.4s0.1-0.3,0.2-0.4c0.1-0.1,0.3-0.2,0.5-0.2s0.3,0.1,0.5,0.2c0.1,0.1,0.2,0.3,0.2,0.4   s-0.1,0.3-0.2,0.4c-0.1,0.1-0.3,0.2-0.5,0.2S192.4,37,192.3,36.9z"/>
	<path class="st10" d="M195.9,40.4h-0.8c-0.1,0-0.2,0-0.3-0.1c-0.1-0.1-0.1-0.2-0.1-0.3s0-0.2,0.1-0.3c0.1-0.1,0.2-0.1,0.3-0.1h1   c0.7,0,1.1,0.4,1.1,1.2c0.7-0.9,1.6-1.4,2.7-1.4c0.6,0,1.2,0.2,1.6,0.5s0.6,0.8,0.6,1.4v3.8c0,0.2,0.2,0.3,0.5,0.3h0.7   c0.1,0,0.2,0,0.3,0.1c0.1,0.1,0.1,0.2,0.1,0.3s0,0.2-0.1,0.3s-0.2,0.1-0.3,0.1h-0.7c-1,0-1.5-0.4-1.5-1.2v-3.8   c0-0.4-0.1-0.6-0.3-0.8c-0.2-0.2-0.5-0.3-0.9-0.3c-1.1,0-2,0.6-2.6,1.7v4.1c0,0.1,0,0.2-0.1,0.3c-0.1,0.1-0.2,0.1-0.3,0.1   c-0.1,0-0.2,0-0.3-0.1c-0.1-0.1-0.1-0.2-0.1-0.3v-5.3C196.3,40.5,196.1,40.4,195.9,40.4z"/>
	<path class="st10" d="M209.5,36.2h-1.1c-0.1,0-0.2,0-0.3-0.1c-0.1-0.1-0.1-0.2-0.1-0.3c0-0.1,0-0.2,0.1-0.3   c0.1-0.1,0.2-0.1,0.3-0.1h8c0.3,0,0.5,0.1,0.5,0.4v1.5c0,0.1,0,0.2-0.1,0.3c-0.1,0.1-0.2,0.1-0.3,0.1c-0.1,0-0.2,0-0.3-0.1   c-0.1-0.1-0.1-0.2-0.1-0.3v-1.1h-5.4v4.2h4.6v-0.7c0-0.1,0-0.2,0.1-0.3s0.2-0.1,0.3-0.1c0.1,0,0.2,0,0.3,0.1s0.1,0.2,0.1,0.3v2.2   c0,0.1,0,0.2-0.1,0.3c-0.1,0.1-0.2,0.1-0.3,0.1c-0.1,0-0.2,0-0.3-0.1c-0.1-0.1-0.1-0.2-0.1-0.3v-0.7h-4.6v4.8c0,0.1,0,0.2-0.1,0.3   c-0.1,0.1-0.2,0.1-0.3,0.1c-0.1,0-0.2,0-0.3-0.1c-0.1-0.1-0.1-0.2-0.1-0.3V36.2z"/>
	<path class="st10" d="M218.6,45.5c-0.6-0.7-1-1.5-1-2.5s0.3-1.9,1-2.5s1.5-1,2.5-1c1,0,1.8,0.3,2.5,1s1,1.5,1,2.6s-0.3,1.9-1,2.5   c-0.6,0.7-1.5,1-2.5,1C220,46.5,219.2,46.1,218.6,45.5z M221.1,45.6c0.7,0,1.3-0.3,1.8-0.8s0.7-1.2,0.7-2c0-0.8-0.2-1.5-0.7-2   c-0.5-0.5-1.1-0.8-1.8-0.8s-1.3,0.3-1.8,0.8c-0.5,0.5-0.7,1.2-0.7,2c0,0.8,0.2,1.4,0.7,2S220.3,45.6,221.1,45.6z"/>
	<path class="st10" d="M225.8,39.6h0.9c0.8,0,1.1,0.4,1.2,1.2c0.6-0.9,1.4-1.4,2.3-1.4c0.5,0,0.9,0.1,1.3,0.3   c0.2,0.1,0.3,0.2,0.3,0.4v1.5c0,0.1,0,0.2-0.1,0.3s-0.2,0.1-0.3,0.1c-0.1,0-0.2,0-0.3-0.1c-0.1-0.1-0.1-0.2-0.1-0.3v-1.3   c-0.2-0.1-0.4-0.1-0.7-0.1s-0.7,0.1-1.1,0.4c-0.4,0.3-0.7,0.7-1,1.3v4.1c0,0.1,0,0.2-0.1,0.3c-0.1,0.1-0.2,0.1-0.3,0.1   c-0.1,0-0.2,0-0.3-0.1c-0.1-0.1-0.1-0.2-0.1-0.3v-5.3c0-0.2-0.1-0.3-0.4-0.3h-0.8c-0.1,0-0.2,0-0.3-0.1c-0.1-0.1-0.1-0.2-0.1-0.3   s0-0.2,0.1-0.3C225.5,39.6,225.6,39.6,225.8,39.6z"/>
	<path class="st10" d="M243.4,41.3v3.8c0,0.2,0.2,0.3,0.5,0.3h0.7c0.1,0,0.2,0,0.3,0.1c0.1,0.1,0.1,0.2,0.1,0.3s0,0.2-0.1,0.3   c-0.1,0.1-0.2,0.1-0.3,0.1h-0.7c-1,0-1.5-0.4-1.5-1.2v-3.8c0-0.7-0.3-1.1-1-1.1c-0.9,0-1.7,0.5-2.3,1.6v4.3c0,0.1,0,0.2-0.1,0.3   s-0.2,0.1-0.3,0.1c-0.1,0-0.2,0-0.3-0.1c-0.1-0.1-0.1-0.2-0.1-0.3v-4.7c0-0.7-0.3-1.1-1-1.1c-0.5,0-1,0.1-1.4,0.4   c-0.4,0.3-0.7,0.7-1.1,1.3v4.1c0,0.1,0,0.2-0.1,0.3c-0.1,0.1-0.2,0.1-0.3,0.1c-0.1,0-0.2,0-0.3-0.1c-0.1-0.1-0.1-0.2-0.1-0.3v-5.3   c0-0.2-0.1-0.3-0.3-0.3h-0.8c-0.1,0-0.2,0-0.3-0.1c-0.1-0.1-0.1-0.2-0.1-0.3s0-0.2,0.1-0.3c0.1-0.1,0.2-0.1,0.3-0.1h1   c0.7,0,1.1,0.4,1.1,1.2c0.4-0.5,0.7-0.8,1.1-1.1c0.4-0.2,0.8-0.3,1.4-0.3c1,0,1.7,0.4,1.9,1.3c0.4-0.4,0.7-0.8,1.1-1   c0.4-0.2,0.8-0.3,1.4-0.3s1,0.2,1.4,0.5C243.3,40.2,243.4,40.7,243.4,41.3z"/>
	<path class="st10" d="M252.2,45.5h0.7c0.1,0,0.2,0,0.3,0.1c0.1,0.1,0.1,0.2,0.1,0.3s0,0.2-0.1,0.3s-0.2,0.1-0.3,0.1h-0.8   c-0.4,0-0.8-0.1-1-0.3s-0.4-0.5-0.4-0.8c0-0.1,0-0.1,0-0.2c-0.6,1-1.6,1.5-2.8,1.5c-0.7,0-1.2-0.2-1.6-0.5   c-0.4-0.4-0.6-0.9-0.6-1.5c0-0.6,0.3-1.1,0.8-1.5c0.5-0.4,1.1-0.5,1.9-0.5c0.8,0,1.5,0.1,2.2,0.4v-1.2c0-0.6-0.2-0.9-0.6-1.1   c-0.3-0.1-0.8-0.2-1.3-0.2c-0.6,0-1.1,0.1-1.6,0.3v1.1c0,0.1,0,0.2-0.1,0.3s-0.2,0.1-0.3,0.1c-0.1,0-0.2,0-0.3-0.1   s-0.1-0.2-0.1-0.3v-1.4c0-0.2,0.1-0.3,0.2-0.4c0.6-0.3,1.4-0.5,2.3-0.5s1.7,0.2,2.2,0.5c0.5,0.3,0.7,0.9,0.7,1.6v3.6   C251.7,45.3,251.8,45.5,252.2,45.5z M250.7,43.5c-0.8-0.2-1.5-0.3-2-0.3s-1,0.1-1.4,0.3s-0.5,0.5-0.5,0.9c0,0.4,0.1,0.7,0.3,0.9   c0.2,0.2,0.5,0.3,0.9,0.3c1.1,0,2-0.6,2.6-1.8V43.5z"/>
	<path class="st10" d="M259.5,45.1c0.1,0,0.2,0.1,0.3,0.2c0,0.1,0.1,0.1,0.1,0.2c0,0.2-0.1,0.3-0.2,0.4c-0.7,0.4-1.5,0.6-2.3,0.6   s-1.4-0.2-1.8-0.5c-0.4-0.3-0.5-0.9-0.5-1.7v-3.9h-1c-0.1,0-0.2,0-0.3-0.1c-0.1-0.1-0.1-0.2-0.1-0.3s0-0.2,0.1-0.3   c0.1-0.1,0.2-0.1,0.3-0.1h1V37c0-0.1,0-0.2,0.1-0.3c0.1-0.1,0.2-0.1,0.3-0.1c0.1,0,0.2,0,0.3,0.1c0.1,0.1,0.1,0.2,0.1,0.3v2.6h3   c0.1,0,0.2,0,0.3,0.1c0.1,0.1,0.1,0.2,0.1,0.3s0,0.2-0.1,0.3c-0.1,0.1-0.2,0.1-0.3,0.1h-3v3.9c0,0.5,0.1,0.9,0.3,1.1   s0.6,0.3,1.2,0.3s1.1-0.2,1.7-0.5C259.2,45.1,259.3,45.1,259.5,45.1z"/>
</g>
<g>
	<path class="st10" d="M508.4,42.1v4c0,0.1,0,0.2-0.1,0.3c-0.1,0.1-0.2,0.1-0.3,0.1c-0.1,0-0.2,0-0.3-0.1c-0.1-0.1-0.1-0.2-0.1-0.3   v-9.9h-1.1c-0.1,0-0.2,0-0.3-0.1s-0.1-0.2-0.1-0.3c0-0.1,0-0.2,0.1-0.3s0.2-0.1,0.3-0.1h5.7c2.6,0,3.9,1.1,3.9,3.4   c0,1.6-0.7,2.7-2.1,3.1l2.3,4c0,0,0,0.1,0,0.2c0,0.2-0.1,0.3-0.2,0.4c-0.1,0.1-0.3,0.1-0.4,0.1c-0.1,0-0.2-0.1-0.3-0.2l-2.5-4.2   c-0.3,0-0.6,0-0.8,0H508.4z M508.4,36.2v5.1h3.6c2,0,3-0.9,3-2.6c0-0.9-0.2-1.5-0.7-1.9c-0.5-0.4-1.2-0.6-2.2-0.6H508.4z"/>
	<path class="st10" d="M518.4,45.5c-0.6-0.7-1-1.5-1-2.5s0.3-1.9,1-2.5s1.5-1,2.5-1c1,0,1.8,0.3,2.5,1s1,1.5,1,2.6s-0.3,1.9-1,2.5   c-0.6,0.7-1.5,1-2.5,1C519.9,46.5,519,46.1,518.4,45.5z M520.9,45.6c0.7,0,1.3-0.3,1.8-0.8s0.7-1.2,0.7-2c0-0.8-0.2-1.5-0.7-2   c-0.5-0.5-1.1-0.8-1.8-0.8s-1.3,0.3-1.8,0.8c-0.5,0.5-0.7,1.2-0.7,2c0,0.8,0.2,1.4,0.7,2S520.2,45.6,520.9,45.6z"/>
	<path class="st10" d="M532.9,45.5h0.8c0.1,0,0.2,0,0.3,0.1s0.1,0.2,0.1,0.3c0,0.1,0,0.2-0.1,0.3s-0.2,0.1-0.3,0.1h-1   c-0.7,0-1.1-0.4-1.1-1.2c-0.7,0.9-1.6,1.4-2.7,1.4c-0.6,0-1.2-0.2-1.6-0.5c-0.4-0.3-0.6-0.8-0.6-1.4v-3.8c0-0.2-0.2-0.3-0.5-0.3   h-0.7c-0.1,0-0.2,0-0.3-0.1c-0.1-0.1-0.1-0.2-0.1-0.3s0-0.2,0.1-0.3s0.2-0.1,0.3-0.1h0.7c1,0,1.5,0.4,1.5,1.2v3.8   c0,0.4,0.1,0.6,0.3,0.8c0.2,0.2,0.5,0.3,0.9,0.3c1.1,0,2-0.6,2.6-1.7v-4.1c0-0.1,0-0.2,0.1-0.3c0.1-0.1,0.2-0.1,0.3-0.1   c0.1,0,0.2,0,0.3,0.1c0.1,0.1,0.1,0.2,0.1,0.3v5.3C532.5,45.3,532.6,45.5,532.9,45.5z"/>
	<path class="st10" d="M535.6,40.4h-0.8c-0.1,0-0.2,0-0.3-0.1c-0.1-0.1-0.1-0.2-0.1-0.3s0-0.2,0.1-0.3c0.1-0.1,0.2-0.1,0.3-0.1h1   c0.7,0,1.1,0.4,1.1,1.2c0.7-0.9,1.6-1.4,2.7-1.4c0.6,0,1.2,0.2,1.6,0.5s0.6,0.8,0.6,1.4v3.8c0,0.2,0.2,0.3,0.5,0.3h0.7   c0.1,0,0.2,0,0.3,0.1c0.1,0.1,0.1,0.2,0.1,0.3s0,0.2-0.1,0.3s-0.2,0.1-0.3,0.1h-0.7c-1,0-1.5-0.4-1.5-1.2v-3.8   c0-0.4-0.1-0.6-0.3-0.8c-0.2-0.2-0.5-0.3-0.9-0.3c-1.1,0-2,0.6-2.6,1.7v4.1c0,0.1,0,0.2-0.1,0.3c-0.1,0.1-0.2,0.1-0.3,0.1   c-0.1,0-0.2,0-0.3-0.1c-0.1-0.1-0.1-0.2-0.1-0.3v-5.3C535.9,40.5,535.8,40.4,535.6,40.4z"/>
	<path class="st10" d="M549.8,33.6h-1.2c-0.1,0-0.2,0-0.3-0.1c-0.1-0.1-0.1-0.2-0.1-0.3s0-0.2,0.1-0.3c0.1-0.1,0.2-0.1,0.3-0.1h1.7   c0.1,0,0.2,0,0.3,0.1c0.1,0.1,0.1,0.2,0.1,0.3v11.9c0,0.2,0.1,0.3,0.4,0.3h0.8c0.1,0,0.2,0,0.3,0.1c0.1,0.1,0.1,0.2,0.1,0.3   c0,0.1,0,0.2-0.1,0.3c-0.1,0.1-0.2,0.1-0.3,0.1h-1c-0.8,0-1.2-0.4-1.1-1.3c-0.3,0.4-0.6,0.8-1,1c-0.4,0.3-0.9,0.4-1.4,0.4   c-1.1,0-1.9-0.3-2.4-1c-0.5-0.7-0.8-1.5-0.8-2.5c0-1,0.3-1.8,0.8-2.5c0.6-0.7,1.3-1,2.3-1c1,0,1.8,0.3,2.5,1V33.6z M547.3,40.2   c-0.7,0-1.2,0.2-1.6,0.7c-0.4,0.5-0.6,1.2-0.6,2c0,0.8,0.2,1.5,0.6,2c0.4,0.5,1,0.7,1.6,0.7c1,0,1.8-0.6,2.4-1.7v-2.6   c-0.3-0.3-0.7-0.6-1.1-0.8C548.2,40.3,547.8,40.2,547.3,40.2z"/>
	<path class="st10" d="M559.3,42.1v4c0,0.1,0,0.2-0.1,0.3c-0.1,0.1-0.2,0.1-0.3,0.1c-0.1,0-0.2,0-0.3-0.1c-0.1-0.1-0.1-0.2-0.1-0.3   v-9.9h-1.1c-0.1,0-0.2,0-0.3-0.1s-0.1-0.2-0.1-0.3c0-0.1,0-0.2,0.1-0.3s0.2-0.1,0.3-0.1h5.7c2.6,0,3.9,1.1,3.9,3.4   c0,1.6-0.7,2.7-2.1,3.1l2.3,4c0,0,0,0.1,0,0.2c0,0.2-0.1,0.3-0.2,0.4c-0.1,0.1-0.3,0.1-0.4,0.1c-0.1,0-0.2-0.1-0.3-0.2l-2.5-4.2   c-0.3,0-0.6,0-0.8,0H559.3z M559.3,36.2v5.1h3.6c2,0,3-0.9,3-2.6c0-0.9-0.2-1.5-0.7-1.9c-0.5-0.4-1.2-0.6-2.2-0.6H559.3z"/>
	<path class="st10" d="M569.2,45.5c-0.6-0.7-1-1.5-1-2.5s0.3-1.9,1-2.5s1.5-1,2.5-1c1,0,1.8,0.3,2.5,1s1,1.5,1,2.6s-0.3,1.9-1,2.5   c-0.6,0.7-1.5,1-2.5,1C570.7,46.5,569.8,46.1,569.2,45.5z M571.7,45.6c0.7,0,1.3-0.3,1.8-0.8s0.7-1.2,0.7-2c0-0.8-0.2-1.5-0.7-2   c-0.5-0.5-1.1-0.8-1.8-0.8s-1.3,0.3-1.8,0.8c-0.5,0.5-0.7,1.2-0.7,2c0,0.8,0.2,1.4,0.7,2S571,45.6,571.7,45.6z"/>
	<path class="st10" d="M577.1,33.6h-1.2c-0.1,0-0.2,0-0.3-0.1s-0.1-0.2-0.1-0.3s0-0.2,0.1-0.3s0.2-0.1,0.3-0.1h1.7   c0.1,0,0.2,0,0.3,0.1s0.2,0.2,0.2,0.3v7.5c0.6-0.9,1.4-1.4,2.4-1.4s1.8,0.3,2.3,1c0.5,0.6,0.8,1.5,0.8,2.6c0,1.1-0.3,1.9-0.8,2.6   c-0.6,0.7-1.3,1-2.3,1c-0.9,0-1.8-0.3-2.5-1v0.6c0,0.1,0,0.2-0.1,0.3c-0.1,0.1-0.2,0.1-0.3,0.1c-0.1,0-0.2,0-0.3-0.1   c-0.1-0.1-0.1-0.2-0.1-0.3V33.6z M578.1,44.6c0.8,0.7,1.6,1.1,2.3,1.1c0.7,0,1.3-0.3,1.7-0.8c0.4-0.5,0.6-1.2,0.6-2s-0.2-1.5-0.6-2   c-0.4-0.5-1-0.7-1.6-0.7c-1,0-1.8,0.6-2.4,1.7V44.6z"/>
	<path class="st10" d="M587.1,46.1c0,0.1,0,0.2-0.1,0.3c-0.1,0.1-0.2,0.1-0.3,0.1c-0.1,0-0.2,0-0.3-0.1c-0.1-0.1-0.1-0.2-0.1-0.3   v-5.7H585c-0.1,0-0.2,0-0.3-0.1c-0.1-0.1-0.1-0.2-0.1-0.3s0-0.2,0.1-0.3c0.1-0.1,0.2-0.1,0.3-0.1h1.7c0.3,0,0.4,0.1,0.4,0.4V46.1z    M586.1,36.9c-0.1-0.1-0.2-0.3-0.2-0.4s0.1-0.3,0.2-0.4c0.1-0.1,0.3-0.2,0.5-0.2s0.3,0.1,0.5,0.2c0.1,0.1,0.2,0.3,0.2,0.4   s-0.1,0.3-0.2,0.4c-0.1,0.1-0.3,0.2-0.5,0.2S586.2,37,586.1,36.9z"/>
	<path class="st10" d="M589.7,40.4h-0.8c-0.1,0-0.2,0-0.3-0.1c-0.1-0.1-0.1-0.2-0.1-0.3s0-0.2,0.1-0.3c0.1-0.1,0.2-0.1,0.3-0.1h1   c0.7,0,1.1,0.4,1.1,1.2c0.7-0.9,1.6-1.4,2.7-1.4c0.6,0,1.2,0.2,1.6,0.5s0.6,0.8,0.6,1.4v3.8c0,0.2,0.2,0.3,0.5,0.3h0.7   c0.1,0,0.2,0,0.3,0.1c0.1,0.1,0.1,0.2,0.1,0.3s0,0.2-0.1,0.3s-0.2,0.1-0.3,0.1h-0.7c-1,0-1.5-0.4-1.5-1.2v-3.8   c0-0.4-0.1-0.6-0.3-0.8c-0.2-0.2-0.5-0.3-0.9-0.3c-1.1,0-2,0.6-2.6,1.7v4.1c0,0.1,0,0.2-0.1,0.3c-0.1,0.1-0.2,0.1-0.3,0.1   c-0.1,0-0.2,0-0.3-0.1c-0.1-0.1-0.1-0.2-0.1-0.3v-5.3C590,40.5,589.9,40.4,589.7,40.4z"/>
	<path class="st10" d="M603.3,36.2h-1.1c-0.1,0-0.2,0-0.3-0.1c-0.1-0.1-0.1-0.2-0.1-0.3c0-0.1,0-0.2,0.1-0.3   c0.1-0.1,0.2-0.1,0.3-0.1h8c0.3,0,0.5,0.1,0.5,0.4v1.5c0,0.1,0,0.2-0.1,0.3c-0.1,0.1-0.2,0.1-0.3,0.1c-0.1,0-0.2,0-0.3-0.1   c-0.1-0.1-0.1-0.2-0.1-0.3v-1.1h-5.4v4.2h4.6v-0.7c0-0.1,0-0.2,0.1-0.3s0.2-0.1,0.3-0.1c0.1,0,0.2,0,0.3,0.1s0.1,0.2,0.1,0.3v2.2   c0,0.1,0,0.2-0.1,0.3c-0.1,0.1-0.2,0.1-0.3,0.1c-0.1,0-0.2,0-0.3-0.1c-0.1-0.1-0.1-0.2-0.1-0.3v-0.7h-4.6v4.8c0,0.1,0,0.2-0.1,0.3   c-0.1,0.1-0.2,0.1-0.3,0.1c-0.1,0-0.2,0-0.3-0.1c-0.1-0.1-0.1-0.2-0.1-0.3V36.2z"/>
	<path class="st10" d="M612.4,45.5c-0.6-0.7-1-1.5-1-2.5s0.3-1.9,1-2.5s1.5-1,2.5-1c1,0,1.8,0.3,2.5,1s1,1.5,1,2.6s-0.3,1.9-1,2.5   c-0.6,0.7-1.5,1-2.5,1C613.8,46.5,613,46.1,612.4,45.5z M614.8,45.6c0.7,0,1.3-0.3,1.8-0.8s0.7-1.2,0.7-2c0-0.8-0.2-1.5-0.7-2   c-0.5-0.5-1.1-0.8-1.8-0.8s-1.3,0.3-1.8,0.8c-0.5,0.5-0.7,1.2-0.7,2c0,0.8,0.2,1.4,0.7,2S614.1,45.6,614.8,45.6z"/>
	<path class="st10" d="M619.5,39.6h0.9c0.8,0,1.1,0.4,1.2,1.2c0.6-0.9,1.4-1.4,2.3-1.4c0.5,0,0.9,0.1,1.3,0.3   c0.2,0.1,0.3,0.2,0.3,0.4v1.5c0,0.1,0,0.2-0.1,0.3S625.1,42,625,42c-0.1,0-0.2,0-0.3-0.1c-0.1-0.1-0.1-0.2-0.1-0.3v-1.3   c-0.2-0.1-0.4-0.1-0.7-0.1s-0.7,0.1-1.1,0.4c-0.4,0.3-0.7,0.7-1,1.3v4.1c0,0.1,0,0.2-0.1,0.3c-0.1,0.1-0.2,0.1-0.3,0.1   c-0.1,0-0.2,0-0.3-0.1c-0.1-0.1-0.1-0.2-0.1-0.3v-5.3c0-0.2-0.1-0.3-0.4-0.3h-0.8c-0.1,0-0.2,0-0.3-0.1c-0.1-0.1-0.1-0.2-0.1-0.3   s0-0.2,0.1-0.3C619.3,39.6,619.4,39.6,619.5,39.6z"/>
	<path class="st10" d="M637.2,41.3v3.8c0,0.2,0.2,0.3,0.5,0.3h0.7c0.1,0,0.2,0,0.3,0.1c0.1,0.1,0.1,0.2,0.1,0.3s0,0.2-0.1,0.3   c-0.1,0.1-0.2,0.1-0.3,0.1h-0.7c-1,0-1.5-0.4-1.5-1.2v-3.8c0-0.7-0.3-1.1-1-1.1c-0.9,0-1.7,0.5-2.3,1.6v4.3c0,0.1,0,0.2-0.1,0.3   s-0.2,0.1-0.3,0.1c-0.1,0-0.2,0-0.3-0.1c-0.1-0.1-0.1-0.2-0.1-0.3v-4.7c0-0.7-0.3-1.1-1-1.1c-0.5,0-1,0.1-1.4,0.4   c-0.4,0.3-0.7,0.7-1.1,1.3v4.1c0,0.1,0,0.2-0.1,0.3c-0.1,0.1-0.2,0.1-0.3,0.1c-0.1,0-0.2,0-0.3-0.1c-0.1-0.1-0.1-0.2-0.1-0.3v-5.3   c0-0.2-0.1-0.3-0.3-0.3h-0.8c-0.1,0-0.2,0-0.3-0.1c-0.1-0.1-0.1-0.2-0.1-0.3s0-0.2,0.1-0.3c0.1-0.1,0.2-0.1,0.3-0.1h1   c0.7,0,1.1,0.4,1.1,1.2c0.4-0.5,0.7-0.8,1.1-1.1c0.4-0.2,0.8-0.3,1.4-0.3c1,0,1.7,0.4,1.9,1.3c0.4-0.4,0.7-0.8,1.1-1   c0.4-0.2,0.8-0.3,1.4-0.3s1,0.2,1.4,0.5C637.1,40.2,637.2,40.7,637.2,41.3z"/>
	<path class="st10" d="M645.9,45.5h0.7c0.1,0,0.2,0,0.3,0.1c0.1,0.1,0.1,0.2,0.1,0.3s0,0.2-0.1,0.3s-0.2,0.1-0.3,0.1h-0.8   c-0.4,0-0.8-0.1-1-0.3s-0.4-0.5-0.4-0.8c0-0.1,0-0.1,0-0.2c-0.6,1-1.6,1.5-2.8,1.5c-0.7,0-1.2-0.2-1.6-0.5   c-0.4-0.4-0.6-0.9-0.6-1.5c0-0.6,0.3-1.1,0.8-1.5c0.5-0.4,1.1-0.5,1.9-0.5c0.8,0,1.5,0.1,2.2,0.4v-1.2c0-0.6-0.2-0.9-0.6-1.1   c-0.3-0.1-0.8-0.2-1.3-0.2c-0.6,0-1.1,0.1-1.6,0.3v1.1c0,0.1,0,0.2-0.1,0.3s-0.2,0.1-0.3,0.1c-0.1,0-0.2,0-0.3-0.1   s-0.1-0.2-0.1-0.3v-1.4c0-0.2,0.1-0.3,0.2-0.4c0.6-0.3,1.4-0.5,2.3-0.5s1.7,0.2,2.2,0.5c0.5,0.3,0.7,0.9,0.7,1.6v3.6   C645.5,45.3,645.6,45.5,645.9,45.5z M644.5,43.5c-0.8-0.2-1.5-0.3-2-0.3s-1,0.1-1.4,0.3s-0.5,0.5-0.5,0.9c0,0.4,0.1,0.7,0.3,0.9   c0.2,0.2,0.5,0.3,0.9,0.3c1.1,0,2-0.6,2.6-1.8V43.5z"/>
	<path class="st10" d="M653.2,45.1c0.1,0,0.2,0.1,0.3,0.2c0,0.1,0.1,0.1,0.1,0.2c0,0.2-0.1,0.3-0.2,0.4c-0.7,0.4-1.5,0.6-2.3,0.6   s-1.4-0.2-1.8-0.5c-0.4-0.3-0.5-0.9-0.5-1.7v-3.9h-1c-0.1,0-0.2,0-0.3-0.1c-0.1-0.1-0.1-0.2-0.1-0.3s0-0.2,0.1-0.3   c0.1-0.1,0.2-0.1,0.3-0.1h1V37c0-0.1,0-0.2,0.1-0.3c0.1-0.1,0.2-0.1,0.3-0.1c0.1,0,0.2,0,0.3,0.1c0.1,0.1,0.1,0.2,0.1,0.3v2.6h3   c0.1,0,0.2,0,0.3,0.1c0.1,0.1,0.1,0.2,0.1,0.3s0,0.2-0.1,0.3c-0.1,0.1-0.2,0.1-0.3,0.1h-3v3.9c0,0.5,0.1,0.9,0.3,1.1   s0.6,0.3,1.2,0.3s1.1-0.2,1.7-0.5C653,45.1,653.1,45.1,653.2,45.1z"/>
</g>
<g>
	<path class="st10" d="M875.8,36.2h-1.1c-0.1,0-0.2,0-0.3-0.1s-0.1-0.2-0.1-0.3c0-0.1,0-0.2,0.1-0.3s0.2-0.1,0.3-0.1h4.8   c1.6,0,2.9,0.5,3.9,1.5c1,1,1.5,2.3,1.5,4s-0.5,3-1.5,4c-1,1-2.3,1.5-4,1.5h-3.3c-0.3,0-0.5-0.1-0.5-0.4V36.2z M876.8,36.2v9.3h2.8   c1.4,0,2.5-0.4,3.3-1.2c0.8-0.8,1.2-1.9,1.2-3.4s-0.4-2.6-1.2-3.4c-0.8-0.8-1.9-1.2-3.2-1.2H876.8z"/>
	<path class="st10" d="M887.5,45.5c-0.6-0.7-1-1.5-1-2.5s0.3-1.9,1-2.5s1.5-1,2.5-1c1,0,1.8,0.3,2.5,1s1,1.5,1,2.6s-0.3,1.9-1,2.5   c-0.6,0.7-1.5,1-2.5,1C889,46.5,888.2,46.1,887.5,45.5z M890,45.6c0.7,0,1.3-0.3,1.8-0.8s0.7-1.2,0.7-2c0-0.8-0.2-1.5-0.7-2   c-0.5-0.5-1.1-0.8-1.8-0.8s-1.3,0.3-1.8,0.8c-0.5,0.5-0.7,1.2-0.7,2c0,0.8,0.2,1.4,0.7,2S889.3,45.6,890,45.6z"/>
	<path class="st10" d="M902,45.5h0.8c0.1,0,0.2,0,0.3,0.1s0.1,0.2,0.1,0.3c0,0.1,0,0.2-0.1,0.3s-0.2,0.1-0.3,0.1h-1   c-0.7,0-1.1-0.4-1.1-1.2c-0.7,0.9-1.6,1.4-2.7,1.4c-0.6,0-1.2-0.2-1.6-0.5c-0.4-0.3-0.6-0.8-0.6-1.4v-3.8c0-0.2-0.2-0.3-0.5-0.3   h-0.7c-0.1,0-0.2,0-0.3-0.1c-0.1-0.1-0.1-0.2-0.1-0.3s0-0.2,0.1-0.3s0.2-0.1,0.3-0.1h0.7c1,0,1.5,0.4,1.5,1.2v3.8   c0,0.4,0.1,0.6,0.3,0.8c0.2,0.2,0.5,0.3,0.9,0.3c1.1,0,2-0.6,2.6-1.7v-4.1c0-0.1,0-0.2,0.1-0.3c0.1-0.1,0.2-0.1,0.3-0.1   c0.1,0,0.2,0,0.3,0.1c0.1,0.1,0.1,0.2,0.1,0.3v5.3C901.7,45.3,901.8,45.5,902,45.5z"/>
	<path class="st10" d="M904.6,33.6h-1.2c-0.1,0-0.2,0-0.3-0.1s-0.1-0.2-0.1-0.3s0-0.2,0.1-0.3s0.2-0.1,0.3-0.1h1.7   c0.1,0,0.2,0,0.3,0.1s0.2,0.2,0.2,0.3v7.5c0.6-0.9,1.4-1.4,2.4-1.4s1.8,0.3,2.3,1c0.5,0.6,0.8,1.5,0.8,2.6c0,1.1-0.3,1.9-0.8,2.6   c-0.6,0.7-1.3,1-2.3,1c-0.9,0-1.8-0.3-2.5-1v0.6c0,0.1,0,0.2-0.1,0.3c-0.1,0.1-0.2,0.1-0.3,0.1c-0.1,0-0.2,0-0.3-0.1   c-0.1-0.1-0.1-0.2-0.1-0.3V33.6z M905.5,44.6c0.8,0.7,1.6,1.1,2.3,1.1c0.7,0,1.3-0.3,1.7-0.8c0.4-0.5,0.6-1.2,0.6-2s-0.2-1.5-0.6-2   c-0.4-0.5-1-0.7-1.6-0.7c-1,0-1.8,0.6-2.4,1.7V44.6z"/>
	<path class="st10" d="M914.7,45.5h0.7c0.1,0,0.2,0,0.3,0.1c0.1,0.1,0.1,0.2,0.1,0.3s0,0.2-0.1,0.3s-0.2,0.1-0.3,0.1h-0.7   c-1,0-1.5-0.4-1.5-1.2V33.6H912c-0.1,0-0.2,0-0.3-0.1s-0.1-0.2-0.1-0.3s0-0.2,0.1-0.3s0.2-0.1,0.3-0.1h1.7c0.1,0,0.2,0,0.3,0.1   c0.1,0.1,0.1,0.2,0.1,0.3v11.9C914.2,45.3,914.4,45.5,914.7,45.5z"/>
	<path class="st10" d="M922.3,44.6c0.1-0.1,0.2-0.2,0.3-0.2c0.1,0,0.2,0,0.3,0.1s0.2,0.1,0.2,0.3c0,0.1,0,0.2,0,0.3   c-0.6,1-1.6,1.5-2.9,1.5c-1.1,0-1.9-0.3-2.5-1s-0.9-1.5-0.9-2.6s0.3-1.9,0.9-2.5c0.6-0.7,1.4-1,2.5-1c1,0,1.8,0.3,2.3,0.9   c0.5,0.6,0.7,1.4,0.7,2.4c0,0.3-0.2,0.4-0.5,0.4l-5,0c0,0.7,0.3,1.3,0.7,1.8s1,0.7,1.7,0.7C921.1,45.6,921.8,45.3,922.3,44.6z    M921.7,40.8c-0.3-0.4-0.8-0.6-1.5-0.6c-0.6,0-1.2,0.2-1.6,0.6c-0.4,0.4-0.7,0.9-0.8,1.5h4.5C922.2,41.7,922,41.2,921.7,40.8z"/>
	<path class="st10" d="M928.7,35.4h8.4c0.3,0,0.5,0.1,0.5,0.4v1.5c0,0.1,0,0.2-0.1,0.3c-0.1,0.1-0.2,0.1-0.3,0.1   c-0.1,0-0.2,0-0.3-0.1s-0.1-0.2-0.1-0.3v-1.1h-5.9v4.2h5.1v-0.7c0-0.1,0-0.2,0.1-0.3s0.2-0.1,0.3-0.1c0.1,0,0.2,0,0.3,0.1   s0.1,0.2,0.1,0.3v2.2c0,0.1,0,0.2-0.1,0.3c-0.1,0.1-0.2,0.1-0.3,0.1c-0.1,0-0.2,0-0.3-0.1c-0.1-0.1-0.1-0.2-0.1-0.3v-0.7h-5.1v4.2   h6.4c0.1,0,0.3,0,0.4,0.1c0.1,0.1,0.1,0.2,0.1,0.3c0,0.1,0,0.2-0.1,0.3c-0.1,0.1-0.2,0.1-0.3,0.1h-6.9c-0.3,0-0.5-0.1-0.5-0.4v-9.7   h-1.1c-0.1,0-0.2,0-0.3-0.1c-0.1-0.1-0.1-0.2-0.1-0.3c0-0.1,0-0.2,0.1-0.3C928.4,35.4,928.5,35.4,928.7,35.4z"/>
	<path class="st10" d="M941.1,45.5h0.7c0.1,0,0.2,0,0.3,0.1c0.1,0.1,0.1,0.2,0.1,0.3s0,0.2-0.1,0.3s-0.2,0.1-0.3,0.1h-0.7   c-1,0-1.5-0.4-1.5-1.2V33.6h-1.2c-0.1,0-0.2,0-0.3-0.1s-0.1-0.2-0.1-0.3s0-0.2,0.1-0.3s0.2-0.1,0.3-0.1h1.7c0.1,0,0.2,0,0.3,0.1   c0.1,0.1,0.1,0.2,0.1,0.3v11.9C940.6,45.3,940.7,45.5,941.1,45.5z"/>
	<path class="st10" d="M945.1,46.1c0,0.1,0,0.2-0.1,0.3c-0.1,0.1-0.2,0.1-0.3,0.1c-0.1,0-0.2,0-0.3-0.1c-0.1-0.1-0.1-0.2-0.1-0.3   v-5.7h-1.2c-0.1,0-0.2,0-0.3-0.1c-0.1-0.1-0.1-0.2-0.1-0.3s0-0.2,0.1-0.3c0.1-0.1,0.2-0.1,0.3-0.1h1.7c0.3,0,0.4,0.1,0.4,0.4V46.1z    M944.1,36.9c-0.1-0.1-0.2-0.3-0.2-0.4s0.1-0.3,0.2-0.4c0.1-0.1,0.3-0.2,0.5-0.2s0.3,0.1,0.5,0.2c0.1,0.1,0.2,0.3,0.2,0.4   s-0.1,0.3-0.2,0.4c-0.1,0.1-0.3,0.2-0.5,0.2S944.2,37,944.1,36.9z"/>
	<path class="st10" d="M957.7,41.3v3.8c0,0.2,0.2,0.3,0.5,0.3h0.7c0.1,0,0.2,0,0.3,0.1c0.1,0.1,0.1,0.2,0.1,0.3s0,0.2-0.1,0.3   c-0.1,0.1-0.2,0.1-0.3,0.1h-0.7c-1,0-1.5-0.4-1.5-1.2v-3.8c0-0.7-0.3-1.1-1-1.1c-0.9,0-1.7,0.5-2.3,1.6v4.3c0,0.1,0,0.2-0.1,0.3   s-0.2,0.1-0.3,0.1c-0.1,0-0.2,0-0.3-0.1c-0.1-0.1-0.1-0.2-0.1-0.3v-4.7c0-0.7-0.3-1.1-1-1.1c-0.5,0-1,0.1-1.4,0.4   c-0.4,0.3-0.7,0.7-1.1,1.3v4.1c0,0.1,0,0.2-0.1,0.3c-0.1,0.1-0.2,0.1-0.3,0.1c-0.1,0-0.2,0-0.3-0.1c-0.1-0.1-0.1-0.2-0.1-0.3v-5.3   c0-0.2-0.1-0.3-0.3-0.3h-0.8c-0.1,0-0.2,0-0.3-0.1c-0.1-0.1-0.1-0.2-0.1-0.3s0-0.2,0.1-0.3c0.1-0.1,0.2-0.1,0.3-0.1h1   c0.7,0,1.1,0.4,1.1,1.2c0.4-0.5,0.7-0.8,1.1-1.1c0.4-0.2,0.8-0.3,1.4-0.3c1,0,1.7,0.4,1.9,1.3c0.4-0.4,0.7-0.8,1.1-1   c0.4-0.2,0.8-0.3,1.4-0.3s1,0.2,1.4,0.5C957.5,40.2,957.7,40.7,957.7,41.3z"/>
	<path class="st10" d="M962,46.1c0,0.1,0,0.2-0.1,0.3c-0.1,0.1-0.2,0.1-0.3,0.1c-0.1,0-0.2,0-0.3-0.1c-0.1-0.1-0.1-0.2-0.1-0.3v-5.7   h-1.2c-0.1,0-0.2,0-0.3-0.1c-0.1-0.1-0.1-0.2-0.1-0.3s0-0.2,0.1-0.3c0.1-0.1,0.2-0.1,0.3-0.1h1.7c0.3,0,0.4,0.1,0.4,0.4V46.1z    M961,36.9c-0.1-0.1-0.2-0.3-0.2-0.4s0.1-0.3,0.2-0.4c0.1-0.1,0.3-0.2,0.5-0.2s0.3,0.1,0.5,0.2c0.1,0.1,0.2,0.3,0.2,0.4   s-0.1,0.3-0.2,0.4c-0.1,0.1-0.3,0.2-0.5,0.2S961.1,37,961,36.9z"/>
	<path class="st10" d="M964.6,40.4h-0.8c-0.1,0-0.2,0-0.3-0.1c-0.1-0.1-0.1-0.2-0.1-0.3s0-0.2,0.1-0.3c0.1-0.1,0.2-0.1,0.3-0.1h1   c0.7,0,1.1,0.4,1.1,1.2c0.7-0.9,1.6-1.4,2.7-1.4c0.6,0,1.2,0.2,1.6,0.5s0.6,0.8,0.6,1.4v3.8c0,0.2,0.2,0.3,0.5,0.3h0.7   c0.1,0,0.2,0,0.3,0.1c0.1,0.1,0.1,0.2,0.1,0.3s0,0.2-0.1,0.3s-0.2,0.1-0.3,0.1h-0.7c-1,0-1.5-0.4-1.5-1.2v-3.8   c0-0.4-0.1-0.6-0.3-0.8c-0.2-0.2-0.5-0.3-0.9-0.3c-1.1,0-2,0.6-2.6,1.7v4.1c0,0.1,0,0.2-0.1,0.3c-0.1,0.1-0.2,0.1-0.3,0.1   c-0.1,0-0.2,0-0.3-0.1c-0.1-0.1-0.1-0.2-0.1-0.3v-5.3C964.9,40.5,964.8,40.4,964.6,40.4z"/>
	<path class="st10" d="M979.5,45.5h0.7c0.1,0,0.2,0,0.3,0.1c0.1,0.1,0.1,0.2,0.1,0.3s0,0.2-0.1,0.3s-0.2,0.1-0.3,0.1h-0.8   c-0.4,0-0.8-0.1-1-0.3s-0.4-0.5-0.4-0.8c0-0.1,0-0.1,0-0.2c-0.6,1-1.6,1.5-2.8,1.5c-0.7,0-1.2-0.2-1.6-0.5   c-0.4-0.4-0.6-0.9-0.6-1.5c0-0.6,0.3-1.1,0.8-1.5c0.5-0.4,1.1-0.5,1.9-0.5c0.8,0,1.5,0.1,2.2,0.4v-1.2c0-0.6-0.2-0.9-0.6-1.1   c-0.3-0.1-0.8-0.2-1.3-0.2c-0.6,0-1.1,0.1-1.6,0.3v1.1c0,0.1,0,0.2-0.1,0.3S974.1,42,974,42c-0.1,0-0.2,0-0.3-0.1s-0.1-0.2-0.1-0.3   v-1.4c0-0.2,0.1-0.3,0.2-0.4c0.6-0.3,1.4-0.5,2.3-0.5s1.7,0.2,2.2,0.5c0.5,0.3,0.7,0.9,0.7,1.6v3.6C979,45.3,979.2,45.5,979.5,45.5   z M978,43.5c-0.8-0.2-1.5-0.3-2-0.3s-1,0.1-1.4,0.3s-0.5,0.5-0.5,0.9c0,0.4,0.1,0.7,0.3,0.9c0.2,0.2,0.5,0.3,0.9,0.3   c1.1,0,2-0.6,2.6-1.8V43.5z"/>
	<path class="st10" d="M986.8,45.1c0.1,0,0.2,0.1,0.3,0.2c0,0.1,0.1,0.1,0.1,0.2c0,0.2-0.1,0.3-0.2,0.4c-0.7,0.4-1.5,0.6-2.3,0.6   s-1.4-0.2-1.8-0.5c-0.4-0.3-0.5-0.9-0.5-1.7v-3.9h-1c-0.1,0-0.2,0-0.3-0.1c-0.1-0.1-0.1-0.2-0.1-0.3s0-0.2,0.1-0.3   c0.1-0.1,0.2-0.1,0.3-0.1h1V37c0-0.1,0-0.2,0.1-0.3c0.1-0.1,0.2-0.1,0.3-0.1c0.1,0,0.2,0,0.3,0.1c0.1,0.1,0.1,0.2,0.1,0.3v2.6h3   c0.1,0,0.2,0,0.3,0.1c0.1,0.1,0.1,0.2,0.1,0.3s0,0.2-0.1,0.3c-0.1,0.1-0.2,0.1-0.3,0.1h-3v3.9c0,0.5,0.1,0.9,0.3,1.1   s0.6,0.3,1.2,0.3s1.1-0.2,1.7-0.5C986.5,45.1,986.7,45.1,986.8,45.1z"/>
	<path class="st10" d="M990,46.1c0,0.1,0,0.2-0.1,0.3c-0.1,0.1-0.2,0.1-0.3,0.1c-0.1,0-0.2,0-0.3-0.1c-0.1-0.1-0.1-0.2-0.1-0.3v-5.7   h-1.2c-0.1,0-0.2,0-0.3-0.1c-0.1-0.1-0.1-0.2-0.1-0.3s0-0.2,0.1-0.3c0.1-0.1,0.2-0.1,0.3-0.1h1.7c0.3,0,0.4,0.1,0.4,0.4V46.1z    M989,36.9c-0.1-0.1-0.2-0.3-0.2-0.4s0.1-0.3,0.2-0.4c0.1-0.1,0.3-0.2,0.5-0.2s0.3,0.1,0.5,0.2c0.1,0.1,0.2,0.3,0.2,0.4   s-0.1,0.3-0.2,0.4c-0.1,0.1-0.3,0.2-0.5,0.2S989.1,37,989,36.9z"/>
	<path class="st10" d="M992.9,45.5c-0.6-0.7-1-1.5-1-2.5s0.3-1.9,1-2.5s1.5-1,2.5-1c1,0,1.8,0.3,2.5,1s1,1.5,1,2.6s-0.3,1.9-1,2.5   c-0.6,0.7-1.5,1-2.5,1C994.4,46.5,993.5,46.1,992.9,45.5z M995.4,45.6c0.7,0,1.3-0.3,1.8-0.8s0.7-1.2,0.7-2c0-0.8-0.2-1.5-0.7-2   c-0.5-0.5-1.1-0.8-1.8-0.8s-1.3,0.3-1.8,0.8c-0.5,0.5-0.7,1.2-0.7,2c0,0.8,0.2,1.4,0.7,2S994.7,45.6,995.4,45.6z"/>
	<path class="st10" d="M1000.9,40.4h-0.8c-0.1,0-0.2,0-0.3-0.1c-0.1-0.1-0.1-0.2-0.1-0.3s0-0.2,0.1-0.3c0.1-0.1,0.2-0.1,0.3-0.1h1   c0.7,0,1.1,0.4,1.1,1.2c0.7-0.9,1.6-1.4,2.7-1.4c0.6,0,1.2,0.2,1.6,0.5s0.6,0.8,0.6,1.4v3.8c0,0.2,0.2,0.3,0.5,0.3h0.7   c0.1,0,0.2,0,0.3,0.1c0.1,0.1,0.1,0.2,0.1,0.3s0,0.2-0.1,0.3s-0.2,0.1-0.3,0.1h-0.7c-1,0-1.5-0.4-1.5-1.2v-3.8   c0-0.4-0.1-0.6-0.3-0.8c-0.2-0.2-0.5-0.3-0.9-0.3c-1.1,0-2,0.6-2.6,1.7v4.1c0,0.1,0,0.2-0.1,0.3c-0.1,0.1-0.2,0.1-0.3,0.1   c-0.1,0-0.2,0-0.3-0.1c-0.1-0.1-0.1-0.2-0.1-0.3v-5.3C1001.3,40.5,1001.2,40.4,1000.9,40.4z"/>
	<path class="st10" d="M1013.6,35.4h5c1.3,0,2.2,0.2,2.8,0.7s0.9,1.2,0.9,2.2c0,1-0.4,1.8-1.2,2.2c1.2,0.4,1.9,1.4,1.9,2.8   c0,2.1-1.3,3.1-4,3.1h-3.9c-0.1,0-0.3,0-0.4-0.1s-0.1-0.2-0.1-0.3v-9.7h-1c-0.1,0-0.2,0-0.3-0.1s-0.1-0.2-0.1-0.3   c0-0.1,0-0.2,0.1-0.3S1013.4,35.4,1013.6,35.4z M1015.5,36.2v3.9h3.5c0.7,0,1.3-0.2,1.7-0.5c0.4-0.3,0.6-0.8,0.6-1.5   c0-0.7-0.2-1.1-0.7-1.4c-0.4-0.3-1.1-0.5-2.1-0.5H1015.5z M1015.5,41v4.5h3.4c1,0,1.8-0.2,2.3-0.5c0.5-0.4,0.7-0.9,0.7-1.7   c0-1.5-0.9-2.3-2.7-2.3H1015.5z"/>
	<path class="st10" d="M1024.2,39.6h0.9c0.8,0,1.1,0.4,1.2,1.2c0.6-0.9,1.4-1.4,2.3-1.4c0.5,0,0.9,0.1,1.3,0.3   c0.2,0.1,0.3,0.2,0.3,0.4v1.5c0,0.1,0,0.2-0.1,0.3s-0.2,0.1-0.3,0.1c-0.1,0-0.2,0-0.3-0.1c-0.1-0.1-0.1-0.2-0.1-0.3v-1.3   c-0.2-0.1-0.4-0.1-0.7-0.1s-0.7,0.1-1.1,0.4c-0.4,0.3-0.7,0.7-1,1.3v4.1c0,0.1,0,0.2-0.1,0.3c-0.1,0.1-0.2,0.1-0.3,0.1   c-0.1,0-0.2,0-0.3-0.1c-0.1-0.1-0.1-0.2-0.1-0.3v-5.3c0-0.2-0.1-0.3-0.4-0.3h-0.8c-0.1,0-0.2,0-0.3-0.1c-0.1-0.1-0.1-0.2-0.1-0.3   s0-0.2,0.1-0.3C1024,39.6,1024.1,39.6,1024.2,39.6z"/>
	<path class="st10" d="M1037.6,45.5h0.7c0.1,0,0.2,0,0.3,0.1c0.1,0.1,0.1,0.2,0.1,0.3s0,0.2-0.1,0.3s-0.2,0.1-0.3,0.1h-0.8   c-0.4,0-0.8-0.1-1-0.3s-0.4-0.5-0.4-0.8c0-0.1,0-0.1,0-0.2c-0.6,1-1.6,1.5-2.8,1.5c-0.7,0-1.2-0.2-1.6-0.5   c-0.4-0.4-0.6-0.9-0.6-1.5c0-0.6,0.3-1.1,0.8-1.5c0.5-0.4,1.1-0.5,1.9-0.5c0.8,0,1.5,0.1,2.2,0.4v-1.2c0-0.6-0.2-0.9-0.6-1.1   c-0.3-0.1-0.8-0.2-1.3-0.2c-0.6,0-1.1,0.1-1.6,0.3v1.1c0,0.1,0,0.2-0.1,0.3s-0.2,0.1-0.3,0.1c-0.1,0-0.2,0-0.3-0.1   s-0.1-0.2-0.1-0.3v-1.4c0-0.2,0.1-0.3,0.2-0.4c0.6-0.3,1.4-0.5,2.3-0.5s1.7,0.2,2.2,0.5c0.5,0.3,0.7,0.9,0.7,1.6v3.6   C1037.1,45.3,1037.2,45.5,1037.6,45.5z M1036.1,43.5c-0.8-0.2-1.5-0.3-2-0.3s-1,0.1-1.4,0.3s-0.5,0.5-0.5,0.9   c0,0.4,0.1,0.7,0.3,0.9c0.2,0.2,0.5,0.3,0.9,0.3c1.1,0,2-0.6,2.6-1.8V43.5z"/>
	<path class="st10" d="M1044.8,44.6c0.1-0.1,0.2-0.2,0.3-0.2s0.2,0,0.3,0.1c0.2,0.1,0.3,0.2,0.3,0.3s0,0.2-0.1,0.3   c-0.6,1-1.6,1.5-2.9,1.5c-1,0-1.8-0.3-2.4-1c-0.6-0.7-0.9-1.5-0.9-2.5s0.3-1.8,1-2.5c0.6-0.7,1.4-1,2.4-1c1,0,1.8,0.2,2.5,0.7   c0.1,0.1,0.2,0.2,0.2,0.3v1.5c0,0.1,0,0.2-0.1,0.3c-0.1,0.1-0.2,0.1-0.3,0.1c-0.1,0-0.2,0-0.3-0.1c-0.1-0.1-0.1-0.2-0.1-0.3v-1.3   c-0.5-0.3-1.1-0.4-1.7-0.4c-0.7,0-1.2,0.3-1.7,0.8c-0.5,0.5-0.7,1.2-0.7,2s0.2,1.5,0.7,2c0.5,0.5,1,0.8,1.7,0.8   C1043.6,45.6,1044.3,45.3,1044.8,44.6z"/>
	<path class="st10" d="M1053.6,45.6c0.1,0,0.2,0,0.3,0.1s0.1,0.2,0.1,0.3s0,0.2-0.1,0.3s-0.2,0.1-0.3,0.1c-1.1,0-2-0.3-2.9-0.9   c-0.9-0.6-1.6-1.3-2.2-2.2v2.6c0,0.1,0,0.2-0.1,0.3c-0.1,0.1-0.2,0.1-0.3,0.1c-0.1,0-0.2,0-0.3-0.1c-0.1-0.1-0.1-0.2-0.1-0.3V33.6   h-1.2c-0.1,0-0.2,0-0.3-0.1s-0.1-0.2-0.1-0.3s0-0.2,0.1-0.3s0.2-0.1,0.3-0.1h1.7c0.1,0,0.2,0,0.3,0.1s0.2,0.2,0.2,0.3v7.5   c0.7-0.9,1.6-1.4,2.6-1.4c0.7,0,1.2,0.2,1.6,0.5c0.4,0.3,0.6,0.8,0.6,1.3c0,0.6-0.2,1-0.5,1.4c-0.6,0.6-1.4,0.8-2.5,0.8   c-0.4,0-0.8,0-1.1-0.1c0.5,0.7,1.2,1.3,2,1.7C1052,45.4,1052.8,45.6,1053.6,45.6z M1048.5,42.5c0.5,0.1,1.1,0.1,1.6,0.1   s1.1-0.1,1.5-0.3c0.5-0.2,0.7-0.6,0.7-1.1c0-0.7-0.4-1-1.2-1c-1.1,0-2,0.6-2.6,1.8V42.5z"/>
	<path class="st10" d="M1060.6,44.6c0.1-0.1,0.2-0.2,0.3-0.2c0.1,0,0.2,0,0.3,0.1s0.2,0.1,0.2,0.3c0,0.1,0,0.2,0,0.3   c-0.6,1-1.6,1.5-2.9,1.5c-1.1,0-1.9-0.3-2.5-1s-0.9-1.5-0.9-2.6s0.3-1.9,0.9-2.5c0.6-0.7,1.4-1,2.5-1c1,0,1.8,0.3,2.3,0.9   c0.5,0.6,0.7,1.4,0.7,2.4c0,0.3-0.2,0.4-0.5,0.4l-5,0c0,0.7,0.3,1.3,0.7,1.8s1,0.7,1.7,0.7C1059.4,45.6,1060.1,45.3,1060.6,44.6z    M1060,40.8c-0.3-0.4-0.8-0.6-1.5-0.6c-0.6,0-1.2,0.2-1.6,0.6c-0.4,0.4-0.7,0.9-0.8,1.5h4.5C1060.5,41.7,1060.3,41.2,1060,40.8z"/>
	<path class="st10" d="M1068.4,45.1c0.1,0,0.2,0.1,0.3,0.2c0,0.1,0.1,0.1,0.1,0.2c0,0.2-0.1,0.3-0.2,0.4c-0.7,0.4-1.5,0.6-2.3,0.6   s-1.4-0.2-1.8-0.5c-0.4-0.3-0.5-0.9-0.5-1.7v-3.9h-1c-0.1,0-0.2,0-0.3-0.1c-0.1-0.1-0.1-0.2-0.1-0.3s0-0.2,0.1-0.3   c0.1-0.1,0.2-0.1,0.3-0.1h1V37c0-0.1,0-0.2,0.1-0.3c0.1-0.1,0.2-0.1,0.3-0.1c0.1,0,0.2,0,0.3,0.1c0.1,0.1,0.1,0.2,0.1,0.3v2.6h3   c0.1,0,0.2,0,0.3,0.1c0.1,0.1,0.1,0.2,0.1,0.3s0,0.2-0.1,0.3c-0.1,0.1-0.2,0.1-0.3,0.1h-3v3.9c0,0.5,0.1,0.9,0.3,1.1   s0.6,0.3,1.2,0.3s1.1-0.2,1.7-0.5C1068.2,45.1,1068.3,45.1,1068.4,45.1z"/>
	<path class="st10" d="M1070.2,46.3c-0.1-0.1-0.2-0.3-0.2-0.5c0-0.2,0.1-0.3,0.2-0.5c0.1-0.1,0.3-0.2,0.5-0.2s0.4,0.1,0.5,0.2   c0.1,0.1,0.2,0.3,0.2,0.5c0,0.2-0.1,0.3-0.2,0.5s-0.3,0.2-0.5,0.2S1070.3,46.4,1070.2,46.3z"/>
	<path class="st10" d="M857.6,57h1.6c0.2,0,0.3,0.1,0.4,0.2l5.1,10.3c0,0,0,0.1,0,0.2c0,0.2-0.1,0.3-0.3,0.4c-0.1,0-0.1,0-0.2,0   c-0.2,0-0.3-0.1-0.4-0.2l-1.7-3.4h-6l-1.7,3.4c-0.1,0.2-0.3,0.3-0.6,0.2c-0.2-0.1-0.3-0.2-0.3-0.4c0,0,0-0.1,0-0.2l4.8-9.7h-0.8   c-0.1,0-0.2,0-0.3-0.1s-0.1-0.2-0.1-0.3s0-0.2,0.1-0.3S857.5,57,857.6,57z M859.1,58.2l-2.6,5.4h5.2L859.1,58.2z"/>
	<path class="st10" d="M867.4,67.1h0.7c0.1,0,0.2,0,0.3,0.1s0.1,0.2,0.1,0.3c0,0.1,0,0.2-0.1,0.3c-0.1,0.1-0.2,0.1-0.3,0.1h-0.7   c-1,0-1.5-0.4-1.5-1.2V55.2h-1.2c-0.1,0-0.2,0-0.3-0.1s-0.1-0.2-0.1-0.3s0-0.2,0.1-0.3s0.2-0.1,0.3-0.1h1.7c0.1,0,0.2,0,0.3,0.1   c0.1,0.1,0.1,0.2,0.1,0.3v11.9C866.9,66.9,867.1,67.1,867.4,67.1z"/>
	<path class="st10" d="M871.5,67.1h0.7c0.1,0,0.2,0,0.3,0.1s0.1,0.2,0.1,0.3c0,0.1,0,0.2-0.1,0.3c-0.1,0.1-0.2,0.1-0.3,0.1h-0.7   c-1,0-1.5-0.4-1.5-1.2V55.2h-1.2c-0.1,0-0.2,0-0.3-0.1s-0.1-0.2-0.1-0.3s0-0.2,0.1-0.3s0.2-0.1,0.3-0.1h1.7c0.1,0,0.2,0,0.3,0.1   c0.1,0.1,0.1,0.2,0.1,0.3v11.9C871,66.9,871.2,67.1,871.5,67.1z"/>
	<path class="st10" d="M879.4,62.4c0.6-1,1.5-1.5,2.5-1.5c1,0,1.8,0.3,2.4,1c0.5,0.7,0.8,1.5,0.8,2.5c0,1-0.3,1.9-0.8,2.5   c-0.6,0.7-1.3,1-2.3,1c-1,0-1.8-0.3-2.5-1v4.6c0,0.1,0,0.2-0.1,0.3c-0.1,0.1-0.2,0.1-0.3,0.1s-0.2,0-0.3-0.1   c-0.1-0.1-0.1-0.2-0.1-0.3v-9.3c0-0.2-0.1-0.3-0.3-0.3h-0.8c-0.1,0-0.2,0-0.3-0.1c-0.1-0.1-0.1-0.2-0.1-0.3s0-0.2,0.1-0.3   c0.1-0.1,0.2-0.1,0.3-0.1h1C879,61.2,879.4,61.6,879.4,62.4z M879.5,66.2c0.8,0.7,1.5,1.1,2.3,1.1s1.4-0.3,1.8-0.8   c0.4-0.5,0.6-1.2,0.6-2c0-0.8-0.2-1.5-0.6-2c-0.4-0.5-0.9-0.7-1.6-0.7c-1,0-1.8,0.6-2.4,1.7V66.2z"/>
	<path class="st10" d="M888.6,67.1h0.7c0.1,0,0.2,0,0.3,0.1s0.1,0.2,0.1,0.3c0,0.1,0,0.2-0.1,0.3c-0.1,0.1-0.2,0.1-0.3,0.1h-0.7   c-1,0-1.5-0.4-1.5-1.2V55.2H886c-0.1,0-0.2,0-0.3-0.1s-0.1-0.2-0.1-0.3s0-0.2,0.1-0.3s0.2-0.1,0.3-0.1h1.7c0.1,0,0.2,0,0.3,0.1   c0.1,0.1,0.1,0.2,0.1,0.3v11.9C888.1,66.9,888.3,67.1,888.6,67.1z"/>
	<path class="st10" d="M897,67.1h0.7c0.1,0,0.2,0,0.3,0.1s0.1,0.2,0.1,0.3c0,0.1,0,0.2-0.1,0.3c-0.1,0.1-0.2,0.1-0.3,0.1h-0.8   c-0.4,0-0.8-0.1-1-0.3c-0.2-0.2-0.4-0.5-0.4-0.8c0-0.1,0-0.1,0-0.2c-0.6,1-1.6,1.5-2.8,1.5c-0.7,0-1.2-0.2-1.6-0.5   c-0.4-0.4-0.6-0.9-0.6-1.5c0-0.6,0.3-1.1,0.8-1.5c0.5-0.4,1.1-0.5,1.9-0.5c0.8,0,1.5,0.1,2.2,0.4v-1.2c0-0.6-0.2-0.9-0.6-1.1   c-0.3-0.1-0.8-0.2-1.3-0.2c-0.6,0-1.1,0.1-1.6,0.3v1.1c0,0.1,0,0.2-0.1,0.3c-0.1,0.1-0.2,0.1-0.3,0.1c-0.1,0-0.2,0-0.3-0.1   c-0.1-0.1-0.1-0.2-0.1-0.3v-1.4c0-0.2,0.1-0.3,0.2-0.4c0.6-0.3,1.4-0.5,2.3-0.5s1.7,0.2,2.2,0.5c0.5,0.3,0.7,0.9,0.7,1.6v3.6   C896.5,66.9,896.7,67.1,897,67.1z M895.6,65.1c-0.8-0.2-1.5-0.3-2-0.3s-1,0.1-1.4,0.3s-0.5,0.5-0.5,0.9c0,0.4,0.1,0.7,0.3,0.9   s0.5,0.3,0.9,0.3c1.1,0,2-0.6,2.6-1.8V65.1z"/>
	<path class="st10" d="M897.7,71.1l0.6,0.1c0.6,0,1.1-0.2,1.4-0.7c0.3-0.4,0.6-0.9,1-1.6l0.6-1.3l-2.9-5.9c0-0.1,0-0.2,0-0.3   c0.1-0.1,0.1-0.2,0.3-0.2c0.1-0.1,0.2-0.1,0.3-0.1c0.1,0,0.2,0.1,0.3,0.3l2.5,5.3l2.5-5.3c0.1-0.2,0.2-0.3,0.3-0.3   c0.3,0,0.5,0.1,0.6,0.3c0,0.1,0,0.1,0,0.2s0,0.1,0,0.2l-3.7,7.6c-0.2,0.5-0.4,0.8-0.5,1.1c-0.1,0.2-0.3,0.5-0.6,0.9   c-0.5,0.6-1.2,0.9-2.1,0.9c-0.3,0-0.4,0-0.6-0.1c-0.3-0.1-0.4-0.2-0.3-0.5S897.5,71.1,897.7,71.1z"/>
	<path class="st10" d="M911.9,66.2c0.1-0.1,0.2-0.2,0.3-0.2c0.1,0,0.2,0,0.3,0.1c0.1,0.1,0.2,0.1,0.2,0.3c0,0.1,0,0.2,0,0.3   c-0.6,1-1.6,1.5-2.9,1.5c-1.1,0-1.9-0.3-2.5-1c-0.6-0.7-0.9-1.5-0.9-2.6s0.3-1.9,0.9-2.5s1.4-1,2.5-1c1,0,1.8,0.3,2.3,0.9   c0.5,0.6,0.7,1.4,0.7,2.4c0,0.3-0.2,0.4-0.5,0.4l-5,0c0,0.7,0.3,1.3,0.7,1.8c0.4,0.5,1,0.7,1.7,0.7   C910.7,67.2,911.4,66.9,911.9,66.2z M911.3,62.4c-0.3-0.4-0.8-0.6-1.5-0.6c-0.6,0-1.2,0.2-1.6,0.6c-0.4,0.4-0.7,0.9-0.8,1.5h4.5   C911.8,63.3,911.7,62.8,911.3,62.4z"/>
	<path class="st10" d="M914.1,61.2h0.9c0.8,0,1.1,0.4,1.2,1.2c0.6-0.9,1.4-1.4,2.3-1.4c0.5,0,0.9,0.1,1.3,0.3   c0.2,0.1,0.3,0.2,0.3,0.4v1.5c0,0.1,0,0.2-0.1,0.3s-0.2,0.1-0.3,0.1c-0.1,0-0.2,0-0.3-0.1c-0.1-0.1-0.1-0.2-0.1-0.3v-1.3   c-0.2-0.1-0.4-0.1-0.7-0.1s-0.7,0.1-1.1,0.4s-0.7,0.7-1,1.3v4.1c0,0.1,0,0.2-0.1,0.3c-0.1,0.1-0.2,0.1-0.3,0.1   c-0.1,0-0.2,0-0.3-0.1c-0.1-0.1-0.1-0.2-0.1-0.3v-5.3c0-0.2-0.1-0.3-0.4-0.3h-0.8c-0.1,0-0.2,0-0.3-0.1c-0.1-0.1-0.1-0.2-0.1-0.3   s0-0.2,0.1-0.3C913.9,61.2,914,61.2,914.1,61.2z"/>
	<path class="st10" d="M921.2,67.2v-1.5c0-0.1,0-0.2,0.1-0.3c0.1-0.1,0.2-0.1,0.3-0.1c0.1,0,0.2,0,0.3,0.1c0.1,0.1,0.1,0.2,0.1,0.3   V67c0.6,0.2,1.2,0.3,1.8,0.3c1.4,0,2.1-0.4,2.1-1.2c0-0.6-0.6-1-1.9-1.3c-0.1,0-0.2,0-0.4-0.1c-0.2,0-0.4-0.1-0.5-0.1   c-0.1,0-0.4-0.1-0.7-0.2c-0.3-0.1-0.5-0.2-0.7-0.4c-0.4-0.3-0.5-0.7-0.5-1.2c0-0.5,0.2-0.9,0.5-1.2c0.3-0.3,0.7-0.5,1.1-0.6   c0.4-0.1,0.8-0.1,1.3-0.1c0.8,0,1.6,0.2,2.3,0.5c0.2,0.1,0.3,0.2,0.3,0.4v1.4c0,0.1,0,0.2-0.1,0.3c-0.1,0.1-0.2,0.1-0.3,0.1   s-0.2,0-0.3-0.1c-0.1-0.1-0.1-0.2-0.1-0.3v-1.2c-0.5-0.2-1-0.3-1.7-0.3c-1.2,0-1.8,0.3-1.8,1c0,0.3,0.1,0.4,0.2,0.5   s0.3,0.2,0.4,0.2s0.2,0.1,0.4,0.1c0.3,0.1,0.6,0.1,0.9,0.2c0.3,0.1,0.5,0.1,0.7,0.2s0.4,0.1,0.7,0.2s0.5,0.2,0.7,0.4   c0.4,0.3,0.6,0.8,0.6,1.3s-0.2,1-0.5,1.3c-0.4,0.3-0.7,0.5-1.2,0.6s-0.9,0.1-1.3,0.1c-0.9,0-1.8-0.2-2.4-0.5   C921.3,67.5,921.2,67.4,921.2,67.2z"/>
	<path class="st10" d="M932.9,55.2h-1.2c-0.1,0-0.2,0-0.3-0.1s-0.1-0.2-0.1-0.3s0-0.2,0.1-0.3s0.2-0.1,0.3-0.1h1.7   c0.1,0,0.2,0,0.3,0.1s0.2,0.2,0.2,0.3v7.5c0.6-0.9,1.4-1.4,2.4-1.4s1.8,0.3,2.3,1c0.5,0.6,0.8,1.5,0.8,2.6s-0.3,1.9-0.8,2.6   c-0.6,0.7-1.3,1-2.3,1c-0.9,0-1.8-0.3-2.5-1v0.6c0,0.1,0,0.2-0.1,0.3c-0.1,0.1-0.2,0.1-0.3,0.1c-0.1,0-0.2,0-0.3-0.1   c-0.1-0.1-0.1-0.2-0.1-0.3V55.2z M933.9,66.2c0.8,0.7,1.6,1.1,2.3,1.1c0.7,0,1.3-0.3,1.7-0.8c0.4-0.5,0.6-1.2,0.6-2   c0-0.8-0.2-1.5-0.6-2c-0.4-0.5-1-0.7-1.6-0.7c-1,0-1.8,0.6-2.4,1.7V66.2z"/>
	<path class="st10" d="M946.5,66.2c0.1-0.1,0.2-0.2,0.3-0.2c0.1,0,0.2,0,0.3,0.1c0.1,0.1,0.2,0.1,0.2,0.3c0,0.1,0,0.2,0,0.3   c-0.6,1-1.6,1.5-2.9,1.5c-1.1,0-1.9-0.3-2.5-1c-0.6-0.7-0.9-1.5-0.9-2.6s0.3-1.9,0.9-2.5s1.4-1,2.5-1c1,0,1.8,0.3,2.3,0.9   c0.5,0.6,0.7,1.4,0.7,2.4c0,0.3-0.2,0.4-0.5,0.4l-5,0c0,0.7,0.3,1.3,0.7,1.8c0.4,0.5,1,0.7,1.7,0.7   C945.4,67.2,946.1,66.9,946.5,66.2z M945.9,62.4c-0.3-0.4-0.8-0.6-1.5-0.6c-0.6,0-1.2,0.2-1.6,0.6c-0.4,0.4-0.7,0.9-0.8,1.5h4.5   C946.5,63.3,946.3,62.8,945.9,62.4z"/>
	<path class="st10" d="M954.5,58.6c0.2,0,0.3,0.1,0.4,0.3c0.2,0.4,0.3,0.8,0.3,1.1c0,0.7-0.3,1.3-0.9,1.8c0.4,0.4,0.6,1,0.6,1.8   s-0.3,1.4-0.8,1.8c-0.6,0.5-1.2,0.7-2,0.7c-0.4,0-0.7,0-1-0.1c-0.3,0.1-0.5,0.2-0.7,0.4c-0.2,0.2-0.3,0.3-0.3,0.5   c0,0.2,0.3,0.4,0.9,0.5c0.3,0,1.2,0.2,2.9,0.3c1.4,0.2,2.1,0.8,2.1,1.7c0,0.7-0.4,1.3-1.3,1.7c-0.8,0.4-1.7,0.6-2.7,0.6   c-1,0-1.8-0.2-2.4-0.6s-1-1-1-1.7s0.3-1.3,1-1.7c-0.3-0.2-0.4-0.4-0.4-0.8c0-0.5,0.4-1,1.2-1.3c-0.7-0.5-1.1-1.2-1.1-2   c0-0.8,0.3-1.5,0.8-1.9c0.5-0.5,1.2-0.7,1.9-0.7c0.7,0,1.3,0.1,1.8,0.4c0.3-0.3,0.5-0.7,0.5-1.2c0-0.3,0-0.5-0.1-0.7   c-0.1-0.4-0.1-0.6,0.2-0.7C954.3,58.7,954.4,58.6,954.5,58.6z M950.1,68.1c-0.5,0.3-0.7,0.7-0.7,1.2c0,0.5,0.2,0.9,0.7,1.2   s1,0.5,1.8,0.5s1.5-0.1,2.1-0.4c0.6-0.3,0.9-0.6,0.9-1.1c0-0.5-0.4-0.8-1.3-0.9c-0.3,0-1.3-0.1-2.9-0.4   C950.5,68.2,950.3,68.1,950.1,68.1z M953.9,63.6c0-0.5-0.2-1-0.5-1.3s-0.8-0.5-1.4-0.5c-0.6,0-1,0.2-1.4,0.5   c-0.4,0.3-0.5,0.8-0.5,1.3c0,0.5,0.2,1,0.5,1.3c0.4,0.3,0.8,0.5,1.4,0.5c0.6,0,1-0.2,1.4-0.5S953.9,64.1,953.9,63.6z"/>
	<path class="st10" d="M958.4,67.7c0,0.1,0,0.2-0.1,0.3c-0.1,0.1-0.2,0.1-0.3,0.1c-0.1,0-0.2,0-0.3-0.1c-0.1-0.1-0.1-0.2-0.1-0.3V62   h-1.2c-0.1,0-0.2,0-0.3-0.1c-0.1-0.1-0.1-0.2-0.1-0.3s0-0.2,0.1-0.3c0.1-0.1,0.2-0.1,0.3-0.1h1.7c0.3,0,0.4,0.1,0.4,0.4V67.7z    M957.3,58.5c-0.1-0.1-0.2-0.3-0.2-0.4s0.1-0.3,0.2-0.4c0.1-0.1,0.3-0.2,0.5-0.2s0.3,0.1,0.5,0.2c0.1,0.1,0.2,0.3,0.2,0.4   s-0.1,0.3-0.2,0.4c-0.1,0.1-0.3,0.2-0.5,0.2S957.5,58.6,957.3,58.5z"/>
	<path class="st10" d="M960.9,62h-0.8c-0.1,0-0.2,0-0.3-0.1c-0.1-0.1-0.1-0.2-0.1-0.3s0-0.2,0.1-0.3c0.1-0.1,0.2-0.1,0.3-0.1h1   c0.7,0,1.1,0.4,1.1,1.2c0.7-0.9,1.6-1.4,2.7-1.4c0.6,0,1.2,0.2,1.6,0.5s0.6,0.8,0.6,1.4v3.8c0,0.2,0.2,0.3,0.5,0.3h0.7   c0.1,0,0.2,0,0.3,0.1s0.1,0.2,0.1,0.3c0,0.1,0,0.2-0.1,0.3c-0.1,0.1-0.2,0.1-0.3,0.1h-0.7c-1,0-1.5-0.4-1.5-1.2v-3.8   c0-0.4-0.1-0.6-0.3-0.8c-0.2-0.2-0.5-0.3-0.9-0.3c-1.1,0-2,0.6-2.6,1.7v4.1c0,0.1,0,0.2-0.1,0.3c-0.1,0.1-0.2,0.1-0.3,0.1   c-0.1,0-0.2,0-0.3-0.1c-0.1-0.1-0.1-0.2-0.1-0.3v-5.3C961.3,62.1,961.2,62,960.9,62z"/>
	<path class="st10" d="M975.4,67.7c0,0.1,0,0.2-0.1,0.3c-0.1,0.1-0.2,0.1-0.3,0.1c-0.1,0-0.2,0-0.3-0.1c-0.1-0.1-0.1-0.2-0.1-0.3V62   h-1.2c-0.1,0-0.2,0-0.3-0.1c-0.1-0.1-0.1-0.2-0.1-0.3s0-0.2,0.1-0.3c0.1-0.1,0.2-0.1,0.3-0.1h1.7c0.3,0,0.4,0.1,0.4,0.4V67.7z    M974.4,58.5c-0.1-0.1-0.2-0.3-0.2-0.4s0.1-0.3,0.2-0.4c0.1-0.1,0.3-0.2,0.5-0.2s0.3,0.1,0.5,0.2c0.1,0.1,0.2,0.3,0.2,0.4   s-0.1,0.3-0.2,0.4c-0.1,0.1-0.3,0.2-0.5,0.2S974.5,58.6,974.4,58.5z"/>
	<path class="st10" d="M977.9,62h-0.8c-0.1,0-0.2,0-0.3-0.1c-0.1-0.1-0.1-0.2-0.1-0.3s0-0.2,0.1-0.3c0.1-0.1,0.2-0.1,0.3-0.1h1   c0.7,0,1.1,0.4,1.1,1.2c0.7-0.9,1.6-1.4,2.7-1.4c0.6,0,1.2,0.2,1.6,0.5s0.6,0.8,0.6,1.4v3.8c0,0.2,0.2,0.3,0.5,0.3h0.7   c0.1,0,0.2,0,0.3,0.1s0.1,0.2,0.1,0.3c0,0.1,0,0.2-0.1,0.3c-0.1,0.1-0.2,0.1-0.3,0.1h-0.7c-1,0-1.5-0.4-1.5-1.2v-3.8   c0-0.4-0.1-0.6-0.3-0.8c-0.2-0.2-0.5-0.3-0.9-0.3c-1.1,0-2,0.6-2.6,1.7v4.1c0,0.1,0,0.2-0.1,0.3c-0.1,0.1-0.2,0.1-0.3,0.1   c-0.1,0-0.2,0-0.3-0.1c-0.1-0.1-0.1-0.2-0.1-0.3v-5.3C978.3,62.1,978.2,62,977.9,62z"/>
	<path class="st10" d="M997.5,67.1h0.8c0.1,0,0.2,0,0.3,0.1s0.1,0.2,0.1,0.3s0,0.2-0.1,0.3s-0.2,0.1-0.3,0.1h-1   c-0.7,0-1.1-0.4-1.1-1.2c-0.7,0.9-1.6,1.4-2.7,1.4c-0.6,0-1.2-0.2-1.6-0.5c-0.4-0.3-0.6-0.8-0.6-1.4v-3.8c0-0.2-0.2-0.3-0.5-0.3   h-0.7c-0.1,0-0.2,0-0.3-0.1s-0.1-0.2-0.1-0.3s0-0.2,0.1-0.3c0.1-0.1,0.2-0.1,0.3-0.1h0.7c1,0,1.5,0.4,1.5,1.2v3.8   c0,0.4,0.1,0.6,0.3,0.8c0.2,0.2,0.5,0.3,0.9,0.3c1.1,0,2-0.6,2.6-1.7v-4.1c0-0.1,0-0.2,0.1-0.3c0.1-0.1,0.2-0.1,0.3-0.1   c0.1,0,0.2,0,0.3,0.1c0.1,0.1,0.1,0.2,0.1,0.3v5.3C997.1,66.9,997.3,67.1,997.5,67.1z"/>
	<path class="st10" d="M1001.5,62.4c0.6-1,1.5-1.5,2.5-1.5c1,0,1.8,0.3,2.4,1c0.5,0.7,0.8,1.5,0.8,2.5c0,1-0.3,1.9-0.8,2.5   c-0.6,0.7-1.3,1-2.3,1c-1,0-1.8-0.3-2.5-1v4.6c0,0.1,0,0.2-0.1,0.3c-0.1,0.1-0.2,0.1-0.3,0.1s-0.2,0-0.3-0.1   c-0.1-0.1-0.1-0.2-0.1-0.3v-9.3c0-0.2-0.1-0.3-0.3-0.3h-0.8c-0.1,0-0.2,0-0.3-0.1c-0.1-0.1-0.1-0.2-0.1-0.3s0-0.2,0.1-0.3   c0.1-0.1,0.2-0.1,0.3-0.1h1C1001.1,61.2,1001.5,61.6,1001.5,62.4z M1001.6,66.2c0.8,0.7,1.5,1.1,2.3,1.1s1.4-0.3,1.8-0.8   c0.4-0.5,0.6-1.2,0.6-2c0-0.8-0.2-1.5-0.6-2c-0.4-0.5-0.9-0.7-1.6-0.7c-1,0-1.8,0.6-2.4,1.7V66.2z"/>
	<path class="st10" d="M1010.6,62.4c0.6-1,1.5-1.5,2.5-1.5c1,0,1.8,0.3,2.4,1c0.5,0.7,0.8,1.5,0.8,2.5c0,1-0.3,1.9-0.8,2.5   c-0.6,0.7-1.3,1-2.3,1c-1,0-1.8-0.3-2.5-1v4.6c0,0.1,0,0.2-0.1,0.3c-0.1,0.1-0.2,0.1-0.3,0.1s-0.2,0-0.3-0.1   c-0.1-0.1-0.1-0.2-0.1-0.3v-9.3c0-0.2-0.1-0.3-0.3-0.3h-0.8c-0.1,0-0.2,0-0.3-0.1c-0.1-0.1-0.1-0.2-0.1-0.3s0-0.2,0.1-0.3   c0.1-0.1,0.2-0.1,0.3-0.1h1C1010.2,61.2,1010.6,61.6,1010.6,62.4z M1010.6,66.2c0.8,0.7,1.5,1.1,2.3,1.1s1.4-0.3,1.8-0.8   c0.4-0.5,0.6-1.2,0.6-2c0-0.8-0.2-1.5-0.6-2c-0.4-0.5-0.9-0.7-1.6-0.7c-1,0-1.8,0.6-2.4,1.7V66.2z"/>
	<path class="st10" d="M1023.3,66.2c0.1-0.1,0.2-0.2,0.3-0.2c0.1,0,0.2,0,0.3,0.1c0.1,0.1,0.2,0.1,0.2,0.3c0,0.1,0,0.2,0,0.3   c-0.6,1-1.6,1.5-2.9,1.5c-1.1,0-1.9-0.3-2.5-1c-0.6-0.7-0.9-1.5-0.9-2.6s0.3-1.9,0.9-2.5s1.4-1,2.5-1c1,0,1.8,0.3,2.3,0.9   c0.5,0.6,0.7,1.4,0.7,2.4c0,0.3-0.2,0.4-0.5,0.4l-5,0c0,0.7,0.3,1.3,0.7,1.8c0.4,0.5,1,0.7,1.7,0.7   C1022.1,67.2,1022.8,66.9,1023.3,66.2z M1022.7,62.4c-0.3-0.4-0.8-0.6-1.5-0.6c-0.6,0-1.2,0.2-1.6,0.6c-0.4,0.4-0.7,0.9-0.8,1.5   h4.5C1023.2,63.3,1023,62.8,1022.7,62.4z"/>
	<path class="st10" d="M1025.5,61.2h0.9c0.8,0,1.1,0.4,1.2,1.2c0.6-0.9,1.4-1.4,2.3-1.4c0.5,0,0.9,0.1,1.3,0.3   c0.2,0.1,0.3,0.2,0.3,0.4v1.5c0,0.1,0,0.2-0.1,0.3s-0.2,0.1-0.3,0.1c-0.1,0-0.2,0-0.3-0.1c-0.1-0.1-0.1-0.2-0.1-0.3v-1.3   c-0.2-0.1-0.4-0.1-0.7-0.1s-0.7,0.1-1.1,0.4s-0.7,0.7-1,1.3v4.1c0,0.1,0,0.2-0.1,0.3c-0.1,0.1-0.2,0.1-0.3,0.1   c-0.1,0-0.2,0-0.3-0.1c-0.1-0.1-0.1-0.2-0.1-0.3v-5.3c0-0.2-0.1-0.3-0.4-0.3h-0.8c-0.1,0-0.2,0-0.3-0.1c-0.1-0.1-0.1-0.2-0.1-0.3   s0-0.2,0.1-0.3C1025.3,61.2,1025.4,61.2,1025.5,61.2z"/>
	<path class="st10" d="M1036.9,55.2h-1.2c-0.1,0-0.2,0-0.3-0.1s-0.1-0.2-0.1-0.3s0-0.2,0.1-0.3s0.2-0.1,0.3-0.1h1.7   c0.1,0,0.2,0,0.3,0.1s0.2,0.2,0.2,0.3v7.5c0.6-0.9,1.4-1.4,2.4-1.4s1.8,0.3,2.3,1c0.5,0.6,0.8,1.5,0.8,2.6s-0.3,1.9-0.8,2.6   c-0.6,0.7-1.3,1-2.3,1c-0.9,0-1.8-0.3-2.5-1v0.6c0,0.1,0,0.2-0.1,0.3c-0.1,0.1-0.2,0.1-0.3,0.1c-0.1,0-0.2,0-0.3-0.1   c-0.1-0.1-0.1-0.2-0.1-0.3V55.2z M1037.9,66.2c0.8,0.7,1.6,1.1,2.3,1.1c0.7,0,1.3-0.3,1.7-0.8c0.4-0.5,0.6-1.2,0.6-2   c0-0.8-0.2-1.5-0.6-2c-0.4-0.5-1-0.7-1.6-0.7c-1,0-1.8,0.6-2.4,1.7V66.2z"/>
	<path class="st10" d="M1044.8,61.2h0.9c0.8,0,1.1,0.4,1.2,1.2c0.6-0.9,1.4-1.4,2.3-1.4c0.5,0,0.9,0.1,1.3,0.3   c0.2,0.1,0.3,0.2,0.3,0.4v1.5c0,0.1,0,0.2-0.1,0.3s-0.2,0.1-0.3,0.1c-0.1,0-0.2,0-0.3-0.1c-0.1-0.1-0.1-0.2-0.1-0.3v-1.3   c-0.2-0.1-0.4-0.1-0.7-0.1s-0.7,0.1-1.1,0.4s-0.7,0.7-1,1.3v4.1c0,0.1,0,0.2-0.1,0.3c-0.1,0.1-0.2,0.1-0.3,0.1   c-0.1,0-0.2,0-0.3-0.1c-0.1-0.1-0.1-0.2-0.1-0.3v-5.3c0-0.2-0.1-0.3-0.4-0.3h-0.8c-0.1,0-0.2,0-0.3-0.1c-0.1-0.1-0.1-0.2-0.1-0.3   s0-0.2,0.1-0.3C1044.5,61.2,1044.6,61.2,1044.8,61.2z"/>
	<path class="st10" d="M1058.1,67.1h0.7c0.1,0,0.2,0,0.3,0.1s0.1,0.2,0.1,0.3c0,0.1,0,0.2-0.1,0.3c-0.1,0.1-0.2,0.1-0.3,0.1h-0.8   c-0.4,0-0.8-0.1-1-0.3c-0.2-0.2-0.4-0.5-0.4-0.8c0-0.1,0-0.1,0-0.2c-0.6,1-1.6,1.5-2.8,1.5c-0.7,0-1.2-0.2-1.6-0.5   c-0.4-0.4-0.6-0.9-0.6-1.5c0-0.6,0.3-1.1,0.8-1.5c0.5-0.4,1.1-0.5,1.9-0.5c0.8,0,1.5,0.1,2.2,0.4v-1.2c0-0.6-0.2-0.9-0.6-1.1   c-0.3-0.1-0.8-0.2-1.3-0.2c-0.6,0-1.1,0.1-1.6,0.3v1.1c0,0.1,0,0.2-0.1,0.3c-0.1,0.1-0.2,0.1-0.3,0.1c-0.1,0-0.2,0-0.3-0.1   c-0.1-0.1-0.1-0.2-0.1-0.3v-1.4c0-0.2,0.1-0.3,0.2-0.4c0.6-0.3,1.4-0.5,2.3-0.5s1.7,0.2,2.2,0.5c0.5,0.3,0.7,0.9,0.7,1.6v3.6   C1057.6,66.9,1057.8,67.1,1058.1,67.1z M1056.7,65.1c-0.8-0.2-1.5-0.3-2-0.3s-1,0.1-1.4,0.3s-0.5,0.5-0.5,0.9   c0,0.4,0.1,0.7,0.3,0.9s0.5,0.3,0.9,0.3c1.1,0,2-0.6,2.6-1.8V65.1z"/>
	<path class="st10" d="M1065.3,66.2c0.1-0.1,0.2-0.2,0.3-0.2s0.2,0,0.3,0.1c0.2,0.1,0.3,0.2,0.3,0.3s0,0.2-0.1,0.3   c-0.6,1-1.6,1.5-2.9,1.5c-1,0-1.8-0.3-2.4-1c-0.6-0.7-0.9-1.5-0.9-2.5c0-1,0.3-1.8,1-2.5c0.6-0.7,1.4-1,2.4-1c1,0,1.8,0.2,2.5,0.7   c0.1,0.1,0.2,0.2,0.2,0.3v1.5c0,0.1,0,0.2-0.1,0.3c-0.1,0.1-0.2,0.1-0.3,0.1c-0.1,0-0.2,0-0.3-0.1c-0.1-0.1-0.1-0.2-0.1-0.3v-1.3   c-0.5-0.3-1.1-0.4-1.7-0.4c-0.7,0-1.2,0.3-1.7,0.8c-0.5,0.5-0.7,1.2-0.7,2c0,0.8,0.2,1.5,0.7,2c0.5,0.5,1,0.8,1.7,0.8   C1064.2,67.2,1064.9,66.9,1065.3,66.2z"/>
	<path class="st10" d="M1074.1,67.2c0.1,0,0.2,0,0.3,0.1s0.1,0.2,0.1,0.3s0,0.2-0.1,0.3s-0.2,0.1-0.3,0.1c-1.1,0-2-0.3-2.9-0.9   c-0.9-0.6-1.6-1.3-2.2-2.2v2.6c0,0.1,0,0.2-0.1,0.3c-0.1,0.1-0.2,0.1-0.3,0.1c-0.1,0-0.2,0-0.3-0.1c-0.1-0.1-0.1-0.2-0.1-0.3V55.2   h-1.2c-0.1,0-0.2,0-0.3-0.1s-0.1-0.2-0.1-0.3s0-0.2,0.1-0.3s0.2-0.1,0.3-0.1h1.7c0.1,0,0.2,0,0.3,0.1s0.2,0.2,0.2,0.3v7.5   c0.7-0.9,1.6-1.4,2.6-1.4c0.7,0,1.2,0.2,1.6,0.5c0.4,0.3,0.6,0.8,0.6,1.3c0,0.6-0.2,1-0.5,1.4c-0.6,0.6-1.4,0.8-2.5,0.8   c-0.4,0-0.8,0-1.1-0.1c0.5,0.7,1.2,1.3,2,1.7C1072.5,67,1073.3,67.2,1074.1,67.2z M1069,64.1c0.5,0.1,1.1,0.1,1.6,0.1   s1.1-0.1,1.5-0.3c0.5-0.2,0.7-0.6,0.7-1.1c0-0.7-0.4-1-1.2-1c-1.1,0-2,0.6-2.6,1.8V64.1z"/>
	<path class="st10" d="M1081.1,66.2c0.1-0.1,0.2-0.2,0.3-0.2c0.1,0,0.2,0,0.3,0.1c0.1,0.1,0.2,0.1,0.2,0.3c0,0.1,0,0.2,0,0.3   c-0.6,1-1.6,1.5-2.9,1.5c-1.1,0-1.9-0.3-2.5-1c-0.6-0.7-0.9-1.5-0.9-2.6s0.3-1.9,0.9-2.5s1.4-1,2.5-1c1,0,1.8,0.3,2.3,0.9   c0.5,0.6,0.7,1.4,0.7,2.4c0,0.3-0.2,0.4-0.5,0.4l-5,0c0,0.7,0.3,1.3,0.7,1.8c0.4,0.5,1,0.7,1.7,0.7   C1079.9,67.2,1080.6,66.9,1081.1,66.2z M1080.5,62.4c-0.3-0.4-0.8-0.6-1.5-0.6c-0.6,0-1.2,0.2-1.6,0.6c-0.4,0.4-0.7,0.9-0.8,1.5   h4.5C1081,63.3,1080.8,62.8,1080.5,62.4z"/>
	<path class="st10" d="M1089,66.7c0.1,0,0.2,0.1,0.3,0.2s0.1,0.1,0.1,0.2c0,0.2-0.1,0.3-0.2,0.4c-0.7,0.4-1.5,0.6-2.3,0.6   s-1.4-0.2-1.8-0.5c-0.4-0.3-0.5-0.9-0.5-1.7V62h-1c-0.1,0-0.2,0-0.3-0.1c-0.1-0.1-0.1-0.2-0.1-0.3s0-0.2,0.1-0.3   c0.1-0.1,0.2-0.1,0.3-0.1h1v-2.6c0-0.1,0-0.2,0.1-0.3s0.2-0.1,0.3-0.1c0.1,0,0.2,0,0.3,0.1s0.1,0.2,0.1,0.3v2.6h3   c0.1,0,0.2,0,0.3,0.1c0.1,0.1,0.1,0.2,0.1,0.3s0,0.2-0.1,0.3c-0.1,0.1-0.2,0.1-0.3,0.1h-3v3.9c0,0.5,0.1,0.9,0.3,1.1   s0.6,0.3,1.2,0.3s1.1-0.2,1.7-0.5C1088.7,66.7,1088.8,66.7,1089,66.7z"/>
	<path class="st10" d="M1090.7,67.9c-0.1-0.1-0.2-0.3-0.2-0.5s0.1-0.3,0.2-0.5c0.1-0.1,0.3-0.2,0.5-0.2s0.4,0.1,0.5,0.2   s0.2,0.3,0.2,0.5s-0.1,0.3-0.2,0.5s-0.3,0.2-0.5,0.2S1090.9,68,1090.7,67.9z"/>
</g>
</svg>
